<?xml version="1.0" encoding="UTF-8"?>
<svg version="1.1" xmlns="http://www.w3.org/2000/svg" width="500" height="500">
<path d="M0 0 C1.12462646 0.37125 1.12462646 0.37125 2.27197266 0.75 C14.61277166 4.91909104 23.01818728 9.57045341 32 19 C33.65423358 20.47242153 35.32059842 21.93135038 37 23.375 C66.38900834 49.89104438 76.94744274 79.70368995 79.3203125 118.7109375 C81.55078329 175.21404859 53.28810383 235.46658909 25.60986328 283.2109375 C24.04444553 285.92299883 22.50081095 288.64616996 20.96484375 291.375 C15.06554192 301.83840666 8.90835556 312.10485764 2.546875 322.29296875 C-1.50285352 328.78701412 -5.47097726 335.32999367 -9.4375 341.875 C-10.16662498 343.07709234 -10.8957916 344.27915943 -11.625 345.48120117 C-14.98841364 351.02669493 -18.34757706 356.57474233 -21.703125 362.125 C-51.73308924 411.73338454 -51.73308924 411.73338454 -68 431 C-68.57975586 431.69947754 -69.15951172 432.39895508 -69.75683594 433.11962891 C-74.61383092 438.80745935 -79.84058904 443.29337686 -85.875 447.6875 C-86.70902344 448.31205078 -87.54304688 448.93660156 -88.40234375 449.58007812 C-105.38310006 462.13848909 -105.38310006 462.13848909 -113 462 C-122.05232141 460.32107997 -129.69761569 454.6267044 -136.8125 449.0625 C-141.42030662 445.51439428 -146.48264374 442.77364781 -151.55078125 439.953125 C-154.46136614 438.30500219 -157.25486108 436.5637439 -160.0625 434.75 C-165.70224935 431.34969731 -171.70127369 429.78430373 -178 428 C-198.54673691 422.07352761 -215.05757502 411.87862644 -232 399 C-232.63953613 398.51885742 -233.27907227 398.03771484 -233.93798828 397.54199219 C-242.77751552 390.87320796 -251.03019593 383.68479467 -259 376 C-259.56332031 375.46584473 -260.12664062 374.93168945 -260.70703125 374.38134766 C-262.17736328 372.96051451 -263.59344628 371.48399789 -265 370 C-265 369.34 -265 368.68 -265 368 C-265.99 367.67 -266.98 367.34 -268 367 C-269.39589947 365.44996996 -270.71887019 363.83365761 -272 362.1875 C-275.36081344 357.9701156 -278.82045903 353.94075686 -282.5 350 C-286.7805537 345.39479132 -290.82901797 340.65688118 -294.76953125 335.75390625 C-297.04934989 332.93906887 -299.39740993 330.19165939 -301.75 327.4375 C-312.15679755 314.93320837 -321.10752031 301.56985174 -329.42480469 287.61132812 C-331.19538973 284.67608671 -333.0046498 281.76694338 -334.8203125 278.859375 C-352.01097871 251.31067898 -367.33543538 223.80956015 -375 192 C-375.1870752 191.2255957 -375.37415039 190.45119141 -375.56689453 189.65332031 C-377.33717201 182.08037619 -378.21935324 176.61168805 -376 169 C-376.28531752 166.99258748 -376.61670049 164.99102802 -377 163 C-375.96405593 153.52111173 -372.11045734 145.28389642 -364.75390625 139.1171875 C-358.00511537 134.40555272 -352.00106313 132.64666565 -343.75 132.75 C-343.00435791 132.75386719 -342.25871582 132.75773438 -341.49047852 132.76171875 C-335.83225138 132.8500423 -330.47114879 133.49442589 -325 135 C-323.948125 133.69675781 -323.948125 133.69675781 -322.875 132.3671875 C-315.25404166 123.0504344 -308.48072575 114.99493767 -296 113 C-260.13277888 109.96421639 -222.62118745 140.76060522 -196.50268555 162.49023438 C-195.04570718 163.72108679 -193.59860894 164.9636083 -192.15234375 166.20703125 C-190.13125242 168.02973443 -190.13125242 168.02973443 -188 169 C-188 169.66 -188 170.32 -188 171 C-187.40960938 171.26039063 -186.81921875 171.52078125 -186.2109375 171.7890625 C-183.21803357 173.4282855 -181.28156971 175.66864301 -178.9765625 178.1484375 C-176.5206835 180.44900399 -173.83016459 182.19028912 -171 184 C-170.96559814 183.37996094 -170.93119629 182.75992188 -170.89575195 182.12109375 C-169.4132557 156.85659948 -166.2524269 132.29016249 -159.125 108 C-158.92438965 107.30946533 -158.7237793 106.61893066 -158.51708984 105.9074707 C-148.22250402 70.88322579 -128.222455 35.26387612 -95.6015625 16.8984375 C-93.61370548 15.82010343 -91.6214594 14.7498228 -89.625 13.6875 C-88.69300781 13.18387939 -87.76101563 12.68025879 -86.80078125 12.16137695 C-74.75267315 5.92381476 -61.79070869 3.37301299 -48.5625 0.8125 C-47.2401357 0.55062798 -45.91786964 0.28825943 -44.59570312 0.02539062 C-29.37142671 -2.96992965 -14.98595093 -5.05797204 0 0 Z M-113 63 C-112 65 -112 65 -112 65 Z M-114 65 C-117.000533 68.07449747 -117.000533 68.07449747 -118 72 C-115.96758273 71.36020151 -115.96758273 71.36020151 -114 70 C-113.18828772 67.44480079 -113.18828772 67.44480079 -113 65 C-113.33 65 -113.66 65 -114 65 Z M-279 319 C-278.4558115 323.05326604 -276.37327476 325.08273747 -273.625 328 C-269.1825019 332.74638233 -269.1825019 332.74638233 -267.3359375 335.3125 C-266.89507812 335.869375 -266.45421875 336.42625 -266 337 C-265.34 337 -264.68 337 -264 337 C-263.67 337.66 -263.34 338.32 -263 339 C-263.60661146 335.67541807 -264.75217927 333.72195733 -266.87109375 331.109375 C-267.73250977 330.04589844 -267.73250977 330.04589844 -268.61132812 328.9609375 C-269.21396484 328.23132813 -269.81660156 327.50171875 -270.4375 326.75 C-271.03626953 326.00492187 -271.63503906 325.25984375 -272.25195312 324.4921875 C-274.53580321 321.66473634 -274.53580321 321.66473634 -277 319 C-277.66 319 -278.32 319 -279 319 Z " fill="#030303" transform="translate(399,16)"/>
<path d="M0 0 C9.42706465 8.30479505 11.01578537 18.67260147 11.94189453 30.67431641 C12.28880339 34.99958674 12.99058861 38.26910835 14.625 42.3125 C14.453125 44.57421875 14.453125 44.57421875 13.875 47 C13.01658833 51.05063005 12.43022229 55.01474675 12.07055664 59.14038086 C10.13382662 80.65234969 4.12713353 101.78480287 -2.375 122.3125 C-2.778396 123.58867187 -2.778396 123.58867187 -3.18994141 124.890625 C-10.24825335 146.85557374 -20.38212549 167.53958961 -30.4375 188.25 C-30.85430023 189.1112851 -31.27110046 189.97257019 -31.70053101 190.85995483 C-39.11190426 206.14521766 -46.71547584 221.50593724 -56.3125 235.5625 C-56.81064209 236.30008545 -57.30878418 237.0376709 -57.82202148 237.79760742 C-65.13033297 248.491599 -73.3524294 258.41519599 -81.77734375 268.23828125 C-84.12628945 270.98970762 -86.34019143 273.83265578 -88.5625 276.6875 C-95.83112149 285.63551418 -104.69878306 293.30929348 -113.43359375 300.796875 C-117.37001021 304.22485567 -120.8743165 307.94757494 -124.375 311.8125 C-132.72197075 320.82505055 -132.72197075 320.82505055 -135.875 323.875 C-136.4215625 324.41253906 -136.968125 324.95007813 -137.53125 325.50390625 C-140.47631519 326.79549204 -142.4441782 325.43048958 -145.375 324.3125 C-147.49803349 323.28814907 -149.59868322 322.21661807 -151.6796875 321.109375 C-152.27240952 320.7948941 -152.86513153 320.48041321 -153.47581482 320.15640259 C-155.4035849 319.13068454 -157.32706493 318.09725071 -159.25 317.0625 C-160.23944107 316.53260468 -160.23944107 316.53260468 -161.24887085 315.99200439 C-170.48436629 311.04248046 -179.63374279 305.96346152 -188.6875 300.6875 C-189.63931152 300.13288086 -190.59112305 299.57826172 -191.57177734 299.00683594 C-199.87507197 294.11310674 -207.83012766 289.08053593 -215.0625 282.6875 C-216.27194923 281.63390082 -217.48159025 280.58052176 -218.69140625 279.52734375 C-219.6043042 278.72852783 -219.6043042 278.72852783 -220.53564453 277.91357422 C-222.91974163 275.8383275 -225.32898593 273.79358904 -227.73876953 271.74829102 C-230.63231943 269.28672798 -233.50709237 266.8038643 -236.375 264.3125 C-236.91431152 263.84457031 -237.45362305 263.37664062 -238.00927734 262.89453125 C-250.58315647 251.90921501 -259.95575039 238.99389659 -269.375 225.3125 C-269.80425781 224.69391113 -270.23351562 224.07532227 -270.67578125 223.43798828 C-294.93469366 188.38771046 -328.84757971 134.87852873 -328.4375 91 C-328.42847656 89.74574219 -328.41945313 88.49148437 -328.41015625 87.19921875 C-328.39275391 85.77029297 -328.39275391 85.77029297 -328.375 84.3125 C-311.99983088 90.42782865 -296.52846299 104.11195291 -283.375 115.3125 C-282.30364248 116.20994239 -281.23201262 117.10705973 -280.16015625 118.00390625 C-272.21398028 124.69435111 -264.60937373 131.70431651 -257.0625 138.83984375 C-253.36879379 142.32990813 -249.61134746 145.7418602 -245.8125 149.1171875 C-243.95574782 150.78945469 -242.12829947 152.47951684 -240.3125 154.1953125 C-239.78301758 154.69192383 -239.25353516 155.18853516 -238.70800781 155.70019531 C-237.21241153 157.10537306 -235.72318916 158.51732596 -234.234375 159.9296875 C-231.49923912 162.40282466 -231.49923912 162.40282466 -228.328125 163.79296875 C-224.79393933 165.61148492 -222.9432559 167.72828642 -220.375 170.75 C-216.3049457 175.40739663 -212.01141015 179.49253316 -207.25 183.4375 C-202.154906 187.66066571 -197.66929291 192.03714567 -193.4375 197.15625 C-189.04505786 201.7483486 -184.60708517 203.77423443 -178.5 205.25 C-173.34741993 206.62111951 -169.25673476 208.15994938 -164.92578125 211.26171875 C-160.59773803 214.19432234 -155.37165876 213.73409308 -150.375 213.3125 C-145.37184293 211.61331458 -142.1501395 208.76408896 -139.375 204.3125 C-135.96874409 197.12301124 -133.96569617 189.55430447 -132 181.875 C-129.73875527 173.25381445 -127.33467378 164.72518939 -124.58129883 156.24902344 C-122.3626018 149.38731875 -120.38613142 142.46532029 -118.46655273 135.5144043 C-117.01764492 130.32827858 -115.34754805 125.32113061 -113.375 120.3125 C-113.04072998 119.4455249 -112.70645996 118.5785498 -112.36206055 117.68530273 C-101.22101573 88.88822452 -88.42006344 55.88437576 -65.35546875 34.29296875 C-63.05228878 31.98978878 -61.12286359 29.50925619 -59.125 26.9375 C-54.20804949 20.85224842 -48.63633615 15.97192451 -42.375 11.3125 C-41.82682617 10.90193359 -41.27865234 10.49136719 -40.71386719 10.06835938 C-29.93461116 2.15983531 -13.19869734 -6.59934867 0 0 Z " fill="#FEFEFE" transform="translate(417.375,102.6875)"/>
<path d="M0 0 C13.33330755 7.74139917 22.17823225 18.86473366 26.22265625 33.87109375 C25.89265625 34.53109375 25.56265625 35.19109375 25.22265625 35.87109375 C24.53300781 35.47277344 23.84335937 35.07445312 23.1328125 34.6640625 C9.03336293 26.71499011 -3.09740697 24.6655094 -18.90234375 28.93359375 C-37.81634177 34.46159317 -52.3150475 47.04444231 -66.77734375 59.87109375 C-67.50566406 60.50144531 -68.23398437 61.13179688 -68.984375 61.78125 C-76.45906276 68.68943511 -82.01017873 77.55141485 -87.77734375 85.87109375 C-88.30440918 86.6280957 -88.83147461 87.38509766 -89.37451172 88.16503906 C-106.54641334 112.95511871 -118.9936922 139.66634115 -128.65625 168.19873047 C-129.03910156 169.32037598 -129.42195313 170.44202148 -129.81640625 171.59765625 C-130.14850098 172.59361816 -130.4805957 173.58958008 -130.82275391 174.61572266 C-131.77734375 176.87109375 -131.77734375 176.87109375 -133.77734375 177.87109375 C-134.01469817 162.39558561 -133.83159508 147.22254658 -131.77734375 131.87109375 C-131.68614258 131.15630859 -131.59494141 130.44152344 -131.50097656 129.70507812 C-125.19947816 81.45992193 -111.32449437 27.91133328 -72.14453125 -4.29296875 C-50.44725291 -20.27685718 -22.09279528 -11.58190508 0 0 Z " fill="#FCFCFC" transform="translate(411.77734375,53.12890625)"/>
<path d="M0 0 C21.93504609 8.50213446 40.14170624 21.93924746 58.65625 36.203125 C61.4880984 38.38410502 64.32863236 40.54527345 67.21875 42.6484375 C72.76261713 46.68612644 77.68948556 50.87171976 82.4453125 55.81640625 C85.04354343 58.46329319 87.81946464 60.84868916 90.6328125 63.26171875 C93.11533243 65.458187 95.41291427 67.81172491 97.734375 70.17578125 C100.29704871 72.69388672 103.00581431 75.0276333 105.734375 77.36328125 C106.32734375 77.8840625 106.9203125 78.40484375 107.53125 78.94140625 C108.05726807 79.33207275 108.58328613 79.72273926 109.12524414 80.12524414 C111.25132416 82.87153851 110.86912746 85.15009333 110.82421875 88.578125 C110.81455078 89.87685547 110.80488281 91.17558594 110.79492188 92.51367188 C110.76985585 93.88542264 110.74446101 95.25716743 110.71875 96.62890625 C110.7037002 98.01235549 110.6900123 99.39582026 110.67773438 100.77929688 C110.64232223 104.16705832 110.59293054 107.55403764 110.53125 110.94140625 C106.12192338 109.31745306 103.19880215 107.10650267 99.84375 103.87890625 C98.77386781 102.87323993 97.70354961 101.86803728 96.6328125 100.86328125 C96.1059082 100.36505859 95.57900391 99.86683594 95.03613281 99.35351562 C92.9630375 97.40822307 90.84267676 95.51841969 88.71875 93.62890625 C84.39223747 89.74972296 80.14605242 85.7896592 75.90625 81.81640625 C71.46818593 77.65901026 67.01786492 73.53590378 62.40625 69.5703125 C60.14373819 67.60475536 57.93434317 65.58467316 55.71875 63.56640625 C52.27746795 60.45611774 48.76803702 57.47662313 45.15625 54.56640625 C41.30601308 51.46051277 37.67824183 48.2244463 34.09375 44.81640625 C17.41916262 29.20758263 -1.64950388 17.12549922 -22.46875 7.94140625 C-18.08032975 -1.74968846 -9.35364968 -2.8545485 0 0 Z " fill="#FBFBFB" transform="translate(118.46875,153.05859375)"/>
<path d="M0 0 C4.65398772 0.33242769 9.21307972 1.57868045 13.75 2.625 C13.76458252 3.27758789 13.77916504 3.93017578 13.79418945 4.60253906 C14.07180226 15.80514792 14.38136752 26.96905242 16.0625 38.0625 C16.16796143 38.76729492 16.27342285 39.47208984 16.38208008 40.19824219 C16.78975388 42.68508034 17.26204778 45.15254109 17.75 47.625 C17.99943359 48.9130957 18.24886719 50.20119141 18.50585938 51.52832031 C20.87889394 63.24173075 24.46702169 74.30866354 28.625 85.5 C28.95191833 86.38764038 29.27883667 87.27528076 29.61566162 88.18981934 C38.17325762 111.32313075 48.9108447 132.71858339 62.34423828 153.44726562 C64.51847222 156.81547797 66.63472595 160.21955466 68.75 163.625 C68.09 163.625 67.43 163.625 66.75 163.625 C66.42 164.285 66.09 164.945 65.75 165.625 C53.3073078 149.55318924 41.81671404 132.66887274 30.75 115.625 C30.35683594 115.02268555 29.96367188 114.42037109 29.55859375 113.79980469 C11.36049677 85.78585314 -8.77489089 52.11291219 -9.6875 17.9375 C-9.72222412 17.14085937 -9.75694824 16.34421875 -9.79272461 15.5234375 C-9.82913156 10.13744974 -8.61061753 6.65377947 -5.7434082 2.10864258 C-3.84459993 0.2222509 -2.63377515 0.11016494 0 0 Z " fill="#F9F9F9" transform="translate(53.25,171.375)"/>
<path d="M0 0 C0 3.17931692 -0.59554968 4.81419342 -1.79296875 7.7265625 C-2.17356445 8.66717529 -2.55416016 9.60778809 -2.94628906 10.5769043 C-3.35588867 11.58277588 -3.76548828 12.58864746 -4.1875 13.625 C-8.04587687 23.30627804 -11.34621595 32.92846519 -14 43 C-14.2057666 43.75780762 -14.4115332 44.51561523 -14.62353516 45.29638672 C-23.28829806 77.31605856 -26.34105655 109.92904813 -27 143 C-30.36917516 141.38757798 -32.25389424 140.41186922 -34 137 C-34.46370519 133.72578895 -34.42401566 130.4892962 -34.375 127.1875 C-34.36484863 126.18195068 -34.35469727 125.17640137 -34.34423828 124.14038086 C-33.59622782 85.82658898 -27.04856011 47.97744527 -10.8125 13.125 C-10.06395752 11.4999353 -10.06395752 11.4999353 -9.30029297 9.84204102 C-8.8157666 8.84487061 -8.33124023 7.8477002 -7.83203125 6.8203125 C-7.19358276 5.49410889 -7.19358276 5.49410889 -6.54223633 4.14111328 C-4.65695055 1.52373853 -3.04439583 0.91571843 0 0 Z " fill="#F4F4F4" transform="translate(284,86)"/>
<path d="M0 0 C4.95 1.65 9.9 3.3 15 5 C16.78484849 13.92424243 12.88639737 22.0101983 9 30 C6.07097127 29.68334825 4.45439748 29.46680679 2.36401367 27.31933594 C0.66811274 24.4356669 0.5733272 22.47442641 0.48828125 19.140625 C0.45283203 18.02558594 0.41738281 16.91054688 0.38085938 15.76171875 C0.35830078 14.60285156 0.33574219 13.44398438 0.3125 12.25 C0.26125977 10.48849609 0.26125977 10.48849609 0.20898438 8.69140625 C0.1265551 5.79460599 0.06159987 2.89731804 0 0 Z " fill="#F7F7F7" transform="translate(252,261)"/>
<path d="M0 0 C4.20682712 3.28337727 7.62675546 6.76589359 11.078125 10.828125 C13.14479227 13.16362703 15.32778614 15.32527846 17.5625 17.5 C21.50216019 21.37894625 24.84832373 25.46405807 28 30 C22.26104956 27.63888477 18.23890693 22.61083259 13.92651367 18.29711914 C12.31777291 16.69275855 10.69372001 15.10507678 9.06835938 13.51757812 C8.04068842 12.49577459 7.01396298 11.47301905 5.98828125 10.44921875 C5.05540283 9.52455811 4.12252441 8.59989746 3.16137695 7.6472168 C0.95463604 4.94443902 0.29878265 3.42766862 0 0 Z " fill="#E5E5E5" transform="translate(136,353)"/>
<path d="M0 0 C0.66 0.33 1.32 0.66 2 1 C-5.59 8.59 -13.18 16.18 -21 24 C-21 19.6782199 -18.39351052 17.78251059 -15.5625 14.8125 C-15.02206055 14.23604736 -14.48162109 13.65959473 -13.92480469 13.06567383 C-9.5267051 8.42820865 -4.9053275 4.10016011 0 0 Z " fill="#585858" transform="translate(292,40)"/>
<path d="M0 0 C0.66 0.33 1.32 0.66 2 1 C-0.97 3.97 -3.94 6.94 -7 10 C-7 7 -7 7 -4.625 4.4375 C-3.75875 3.633125 -2.8925 2.82875 -2 2 C-1.34 1.34 -0.68 0.68 0 0 Z " fill="#3A3A3A" transform="translate(36,154)"/>
</svg>
