<?xml version="1.0" encoding="UTF-8"?>
<svg version="1.1" xmlns="http://www.w3.org/2000/svg" width="500" height="500">
<path d="M0 0 C1.15628906 0.36351562 2.31257813 0.72703125 3.50390625 1.1015625 C14.58683255 4.80782696 22.80406211 9.31233191 30.8671875 17.796875 C32.75034287 19.74211241 34.66812046 21.46276298 36.75 23.1875 C61.3042902 44.41571105 75.09918306 70.68648755 78 103 C78.36600495 108.9745984 78.39028832 114.95358902 78.375 120.9375 C78.37418427 122.14880585 78.37418427 122.14880585 78.37335205 123.38458252 C78.33063851 137.25349961 77.16022122 150.46069207 74 164 C73.79101074 164.92280762 73.58202148 165.84561523 73.36669922 166.79638672 C63.436094 209.82900932 45.02992734 249.92756684 23 288 C22.30481112 289.20473002 21.60966244 290.40948324 20.91455078 291.61425781 C13.73868259 304.03644062 6.49722099 316.40090389 -1.26220703 328.47021484 C-6.19953722 336.19987401 -10.8375373 344.10299699 -15.5 352 C-25.02161612 368.10878711 -34.89944049 383.90787989 -45.25 399.5 C-45.8999292 400.4796875 -46.5498584 401.459375 -47.21948242 402.46875 C-53.75902869 412.25521548 -60.59901922 421.84313243 -68 431 C-68.88751953 432.10988281 -68.88751953 432.10988281 -69.79296875 433.2421875 C-75.10424625 439.57191614 -81.25901508 444.28332936 -88 449 C-89.01731201 449.71784668 -89.01731201 449.71784668 -90.05517578 450.45019531 C-92.21924717 451.97416178 -94.3891193 453.48934321 -96.5625 455 C-97.2534375 455.48130371 -97.944375 455.96260742 -98.65625 456.45849609 C-99.30722656 456.90531738 -99.95820313 457.35213867 -100.62890625 457.8125 C-101.20713135 458.21082031 -101.78535645 458.60914063 -102.38110352 459.01953125 C-107.15694922 461.91197528 -112.63423112 461.70620442 -118 461 C-125.4716305 458.2154094 -131.57481747 453.12360065 -137.82421875 448.30078125 C-142.24723241 445.0964085 -146.91181733 442.47550439 -151.69140625 439.84765625 C-154.56301542 438.24403035 -157.30255141 436.53479658 -160.0625 434.75 C-165.70411507 431.34857244 -171.70196774 429.79179686 -178 428 C-201.73119379 420.94806631 -220.80800521 408.41456075 -240 393 C-240.52126465 392.58314941 -241.0425293 392.16629883 -241.57958984 391.73681641 C-253.73799704 381.94057132 -264.94467745 370.94561817 -275 359 C-277.85361185 355.82859141 -277.85361185 355.82859141 -280.71484375 352.6640625 C-282 351 -282 351 -282 349 C-282.66 349 -283.32 349 -284 349 C-288 344.52941176 -288 344.52941176 -288 342 C-288.66 342 -289.32 342 -290 342 C-291.55859375 340.26953125 -291.55859375 340.26953125 -293.4375 337.8125 C-296.49817565 333.86483069 -299.67981431 330.10582705 -303 326.375 C-313.86838087 313.8413027 -322.61740166 299.21348196 -331.1640625 285.03125 C-332.5119816 282.80574953 -333.87816057 280.60164009 -335.2734375 278.40625 C-383.80050881 202.00254407 -383.80050881 202.00254407 -377 168 C-376.89193523 166.22940027 -376.78821063 164.45853325 -376.6875 162.6875 C-376.19782525 157.1353417 -374.7116808 152.84425689 -372 148 C-371.47599609 147.05833984 -371.47599609 147.05833984 -370.94140625 146.09765625 C-366.63043781 139.28065772 -359.71688081 135.02486474 -352 133 C-349.20532101 132.81221525 -346.53903161 132.71507083 -343.75 132.75 C-343.00435791 132.75386719 -342.25871582 132.75773438 -341.49047852 132.76171875 C-335.83225138 132.8500423 -330.47114879 133.49442589 -325 135 C-324.27554688 134.11957031 -323.55109375 133.23914063 -322.8046875 132.33203125 C-321.82840813 131.15861855 -320.85182959 129.9854547 -319.875 128.8125 C-319.400625 128.23435547 -318.92625 127.65621094 -318.4375 127.06054688 C-312.04950855 119.42085439 -305.27671712 113.9826145 -295.04638672 112.76806641 C-266.96531366 110.67993594 -241.87328654 129.46302266 -220 145 C-219.3709375 145.44601563 -218.741875 145.89203125 -218.09375 146.3515625 C-205.30263665 155.46523076 -192.86629176 165.14786427 -181.40625 175.90234375 C-178.08320862 178.79921586 -174.55091087 181.39073406 -171 184 C-170.93530518 183.18772949 -170.87061035 182.37545898 -170.80395508 181.53857422 C-167.8593731 145.47060445 -163.51169368 108.75333629 -147 76 C-146.44828125 74.89527344 -145.8965625 73.79054688 -145.328125 72.65234375 C-130.22455954 43.5883726 -107.08011183 17.40180512 -74.99682617 7.02905273 C-66.27866716 4.4472381 -57.48431605 2.5394478 -48.5625 0.8125 C-47.2401357 0.55062798 -45.91786964 0.28825943 -44.59570312 0.02539062 C-29.30883135 -2.98224505 -15.10702892 -4.86069142 0 0 Z " fill="#FBFBFB" transform="translate(399,16)"/>
<path d="M0 0 C7.22834518 3.61417259 10.53348104 9.07425047 13.125 16.484375 C14.42792653 21.71934765 14.90242204 26.99054824 15.31689453 32.36181641 C15.66380339 36.68708674 16.36558861 39.95660835 18 44 C17.828125 46.26171875 17.828125 46.26171875 17.25 48.6875 C16.39158833 52.73813005 15.80522229 56.70224675 15.44555664 60.82788086 C13.50882662 82.33984969 7.50213353 103.47230287 1 124 C0.596604 125.27617187 0.596604 125.27617187 0.18505859 126.578125 C-6.87325335 148.54307374 -17.00712549 169.22708961 -27.0625 189.9375 C-27.47930023 190.7987851 -27.89610046 191.66007019 -28.32553101 192.54745483 C-35.78584565 207.9336547 -43.45060263 223.36075833 -53.125 237.5 C-53.62942627 238.24644775 -54.13385254 238.99289551 -54.65356445 239.76196289 C-58.50411589 245.40415435 -62.59830402 250.77522266 -67 256 C-68.48085658 257.81111956 -69.95995091 259.62368111 -71.4375 261.4375 C-72.19160156 262.3553125 -72.94570313 263.273125 -73.72265625 264.21875 C-75.21814697 266.0451469 -76.70542244 267.87830773 -78.18359375 269.71875 C-86.10579593 279.54736447 -94.2982111 288.88680811 -104 297 C-110.10763333 302.2059792 -115.69402828 307.72833076 -121.125 313.625 C-129.50176403 322.66190773 -129.50176403 322.66190773 -132.5 325.5625 C-133.0465625 326.10003906 -133.593125 326.63757813 -134.15625 327.19140625 C-137.10131519 328.48299204 -139.0691782 327.11798958 -142 326 C-144.12303349 324.97564907 -146.22368322 323.90411807 -148.3046875 322.796875 C-148.89740952 322.4823941 -149.49013153 322.16791321 -150.10081482 321.84390259 C-152.0285849 320.81818454 -153.95206493 319.78475071 -155.875 318.75 C-156.86444107 318.22010468 -156.86444107 318.22010468 -157.87387085 317.67950439 C-167.10936629 312.72998046 -176.25874279 307.65096152 -185.3125 302.375 C-186.26431152 301.82038086 -187.21612305 301.26576172 -188.19677734 300.69433594 C-196.50007197 295.80060674 -204.45512766 290.76803593 -211.6875 284.375 C-212.89694923 283.32140082 -214.10659025 282.26802176 -215.31640625 281.21484375 C-216.2293042 280.41602783 -216.2293042 280.41602783 -217.16064453 279.60107422 C-219.54474163 277.5258275 -221.95398593 275.48108904 -224.36376953 273.43579102 C-227.25731943 270.97422798 -230.13209237 268.4913643 -233 266 C-233.53931152 265.53207031 -234.07862305 265.06414062 -234.63427734 264.58203125 C-247.20815647 253.59671501 -256.58075039 240.68139659 -266 227 C-266.42925781 226.38141113 -266.85851562 225.76282227 -267.30078125 225.12548828 C-291.55969366 190.07521046 -325.47257971 136.56602873 -325.0625 92.6875 C-325.05347656 91.43324219 -325.04445313 90.17898437 -325.03515625 88.88671875 C-325.01775391 87.45779297 -325.01775391 87.45779297 -325 86 C-320.03981245 87.66317926 -315.98839554 90.47236635 -311.6875 93.375 C-310.89641846 93.90665771 -310.10533691 94.43831543 -309.2902832 94.98608398 C-293.05746413 105.9899299 -278.06270429 118.21246863 -263.6875 131.52734375 C-261.54895125 133.49493293 -259.39035268 135.4182366 -257.1875 137.3125 C-253.19358364 140.77054498 -249.35329173 144.38724538 -245.5 148 C-235.2060875 158.09924532 -235.2060875 158.09924532 -223.51171875 166.3984375 C-220.71497416 168.18174276 -218.9512893 170.09697513 -216.8125 172.625 C-211.59117341 178.58355709 -205.82704991 183.74394866 -199.80078125 188.87109375 C-196.55188343 191.64967493 -193.58870772 194.37621415 -190.875 197.6875 C-185.98603211 203.59665902 -180.09451942 206.43002548 -172.6875 207.8125 C-168.39618642 208.70085206 -165.30711247 210.39609691 -161.7265625 212.87890625 C-157.23410504 215.79595442 -152.1483513 215.43439214 -147 215 C-141.99787791 213.30116608 -138.77317541 210.45209636 -136 206 C-132.70706783 199.01575148 -130.71583246 191.70606785 -128.8125 184.25 C-125.19911473 170.45563041 -121.12767424 156.82463997 -116.96679688 143.1875 C-116.10244382 140.33775417 -115.26037173 137.48242264 -114.421875 134.625 C-113.13400342 130.33456277 -111.63423743 126.16924308 -110 122 C-109.66597168 121.1332666 -109.33194336 120.2665332 -108.98779297 119.37353516 C-97.84213626 90.57612129 -85.04689751 57.57359268 -61.98046875 35.98046875 C-59.67728878 33.67728878 -57.74786359 31.19675619 -55.75 28.625 C-50.83426923 22.54125799 -45.26427908 17.65341113 -39 13 C-38.44119141 12.58411621 -37.88238281 12.16823242 -37.30664062 11.73974609 C-29.15679579 5.80233089 -22.06088928 2.72825092 -12 1 C-8.28795513 -0.85602244 -4.0512695 -0.44875601 0 0 Z " fill="#000000" transform="translate(414,101)"/>
<path d="M0 0 C13.33330755 7.74139917 22.17823225 18.86473366 26.22265625 33.87109375 C25.89265625 34.53109375 25.56265625 35.19109375 25.22265625 35.87109375 C24.53300781 35.47277344 23.84335937 35.07445312 23.1328125 34.6640625 C9.03336293 26.71499011 -3.09740697 24.6655094 -18.90234375 28.93359375 C-37.81634177 34.46159317 -52.3150475 47.04444231 -66.77734375 59.87109375 C-67.50566406 60.50144531 -68.23398437 61.13179688 -68.984375 61.78125 C-76.45906276 68.68943511 -82.01017873 77.55141485 -87.77734375 85.87109375 C-88.30440918 86.6280957 -88.83147461 87.38509766 -89.37451172 88.16503906 C-106.54641334 112.95511871 -118.9936922 139.66634115 -128.65625 168.19873047 C-129.03910156 169.32037598 -129.42195313 170.44202148 -129.81640625 171.59765625 C-130.14850098 172.59361816 -130.4805957 173.58958008 -130.82275391 174.61572266 C-131.77734375 176.87109375 -131.77734375 176.87109375 -133.77734375 177.87109375 C-134.18305785 151.8242485 -131.8568927 127.42559168 -126.77734375 101.87109375 C-126.57737793 100.86449707 -126.37741211 99.85790039 -126.17138672 98.82080078 C-118.35177977 60.30972571 -102.45313848 18.03468862 -69.65234375 -6.12890625 C-48.52996085 -19.92931297 -20.76827777 -10.88754134 0 0 Z " fill="#020202" transform="translate(411.77734375,53.12890625)"/>
<path d="M0 0 C21.93504609 8.50213446 40.14170624 21.93924746 58.65625 36.203125 C61.4880984 38.38410502 64.32863236 40.54527345 67.21875 42.6484375 C72.76261713 46.68612644 77.68948556 50.87171976 82.4453125 55.81640625 C85.04354343 58.46329319 87.81946464 60.84868916 90.6328125 63.26171875 C93.11533243 65.458187 95.41291427 67.81172491 97.734375 70.17578125 C100.29704871 72.69388672 103.00581431 75.0276333 105.734375 77.36328125 C106.32734375 77.8840625 106.9203125 78.40484375 107.53125 78.94140625 C108.05726807 79.33207275 108.58328613 79.72273926 109.12524414 80.12524414 C111.25132416 82.87153851 110.86912746 85.15009333 110.82421875 88.578125 C110.81455078 89.87685547 110.80488281 91.17558594 110.79492188 92.51367188 C110.76985585 93.88542264 110.74446101 95.25716743 110.71875 96.62890625 C110.7037002 98.01235549 110.6900123 99.39582026 110.67773438 100.77929688 C110.64232223 104.16705832 110.59293054 107.55403764 110.53125 110.94140625 C106.12192338 109.31745306 103.19880215 107.10650267 99.84375 103.87890625 C98.77386781 102.87323993 97.70354961 101.86803728 96.6328125 100.86328125 C96.1059082 100.36505859 95.57900391 99.86683594 95.03613281 99.35351562 C92.9630375 97.40822307 90.84267676 95.51841969 88.71875 93.62890625 C84.39223747 89.74972296 80.14605242 85.7896592 75.90625 81.81640625 C71.46818593 77.65901026 67.01786492 73.53590378 62.40625 69.5703125 C60.14373819 67.60475536 57.93434317 65.58467316 55.71875 63.56640625 C52.27746795 60.45611774 48.76803702 57.47662313 45.15625 54.56640625 C41.17859415 51.35411396 37.38634708 47.99724926 33.65625 44.50390625 C18.70040431 30.60234492 1.93410878 19.68831937 -16.46875 10.94140625 C-18.47100224 9.94592346 -20.47183638 8.94755533 -22.46875 7.94140625 C-18.58464149 -1.94541541 -8.96684865 -2.73650449 0 0 Z " fill="#030303" transform="translate(118.46875,153.05859375)"/>
<path d="M0 0 C1.09634766 0.00773438 1.09634766 0.00773438 2.21484375 0.015625 C2.92769531 0.01046875 3.64054687 0.0053125 4.375 0 C8.38371394 0.38339318 12.24027258 1.33136728 16.15234375 2.265625 C16.16692627 2.91821289 16.18150879 3.57080078 16.1965332 4.24316406 C16.47414601 15.44577292 16.78371127 26.60967742 18.46484375 37.703125 C18.57030518 38.40791992 18.6757666 39.11271484 18.78442383 39.83886719 C19.19209763 42.32570534 19.66439153 44.79316609 20.15234375 47.265625 C20.40177734 48.5537207 20.65121094 49.84181641 20.90820312 51.16894531 C23.28123769 62.88235575 26.86936544 73.94928854 31.02734375 85.140625 C31.35426208 86.02826538 31.68118042 86.91590576 32.01800537 87.83044434 C47.67325973 130.15049244 71.51110528 168.4891362 103.96484375 200.015625 C107.46823932 203.4428598 110.32256695 207.27491413 113.15234375 211.265625 C109.31400129 209.68378298 106.88567527 207.24273511 103.9765625 204.3203125 C103.24419121 203.58725388 103.24419121 203.58725388 102.49702454 202.83938599 C101.46512177 201.80446833 100.43564431 200.76712749 99.40844727 199.72753906 C97.86059483 198.16161831 96.30508025 196.60366142 94.74804688 195.046875 C89.85770098 190.1388229 85.07096239 185.17805243 80.5637207 179.91113281 C78.73846366 177.78308706 76.81749072 175.75022108 74.90234375 173.703125 C59.03186487 156.04555018 46.05674765 135.13972828 33.15234375 115.265625 C32.75917969 114.66331055 32.36601563 114.06099609 31.9609375 113.44042969 C12.49536997 83.47534783 -9.31035756 47.16938792 -6.84765625 10.265625 C-5.9690448 6.20700696 -4.75331923 0.68335245 0 0 Z " fill="#050505" transform="translate(50.84765625,171.734375)"/>
<path d="M0 0 C0 3.20968185 -0.57643094 4.60744242 -1.90625 7.48046875 C-2.31649414 8.38466553 -2.72673828 9.2888623 -3.14941406 10.22045898 C-3.59510742 11.19958252 -4.04080078 12.17870605 -4.5 13.1875 C-24.29323727 57.81372384 -31.03443019 105.54013181 -32 154 C-35.36917516 152.38757798 -37.25389424 151.41186922 -39 148 C-39.46370519 144.72578895 -39.42401566 141.4892962 -39.375 138.1875 C-39.36484863 137.18195068 -39.35469727 136.17640137 -39.34423828 135.14038086 C-38.46526882 90.11874761 -31.18167684 34.69996338 0 0 Z " fill="#0A0A0A" transform="translate(289,75)"/>
<path d="M0 0 C4.95 1.65 9.9 3.3 15 5 C16.78484849 13.92424243 12.88639737 22.0101983 9 30 C6.07097127 29.68334825 4.45439748 29.46680679 2.36401367 27.31933594 C0.66811274 24.4356669 0.5733272 22.47442641 0.48828125 19.140625 C0.45283203 18.02558594 0.41738281 16.91054688 0.38085938 15.76171875 C0.35830078 14.60285156 0.33574219 13.44398438 0.3125 12.25 C0.26125977 10.48849609 0.26125977 10.48849609 0.20898438 8.69140625 C0.1265551 5.79460599 0.06159987 2.89731804 0 0 Z " fill="#070707" transform="translate(252,261)"/>
<path d="M0 0 C4.35920885 1.54452155 6.52921952 4.93339542 9.1875 8.5 C13.23911487 13.80025138 17.43256107 18.85622329 21.953125 23.76953125 C23.84671187 25.83296274 25.67826164 27.93574581 27.5 30.0625 C30.06299408 33.01797113 32.76396339 35.76687159 35.5625 38.5 C39.50216019 42.37894625 42.84832373 46.46405807 46 51 C42.16165754 49.41815798 39.73333152 46.97711011 36.82421875 44.0546875 C36.33597122 43.56598175 35.84772369 43.077276 35.34468079 42.57376099 C34.31277802 41.53884333 33.28330056 40.50150249 32.25610352 39.46191406 C30.70825108 37.89599331 29.1527365 36.33803642 27.59570312 34.78125 C22.19082768 29.35696668 16.97302656 23.82585809 12 18 C9.71298457 15.45689575 7.41456397 12.92471598 5.11328125 10.39453125 C4.41589844 9.60433594 3.71851562 8.81414062 3 8 C2.23042969 7.13761719 1.46085937 6.27523438 0.66796875 5.38671875 C0.11753906 4.59910156 -0.43289062 3.81148438 -1 3 C-0.67 2.01 -0.34 1.02 0 0 Z " fill="#121212" transform="translate(118,332)"/>
<path d="M0 0 C3.19363953 1.37859928 4.99361769 2.88108828 7.1875 5.5625 C9.8421644 8.71277771 12.60739518 11.62946888 15.5625 14.5 C19.50216019 18.37894625 22.84832373 22.46405807 26 27 C20.39503598 24.67876053 16.50506371 19.83886786 12.29882812 15.61450195 C10.74990505 14.06240485 9.1880929 12.52413858 7.625 10.98632812 C6.63981526 10.00341511 5.65541242 9.01971763 4.671875 8.03515625 C3.7756543 7.1419165 2.87943359 6.24867676 1.95605469 5.32836914 C0 3 0 3 0 0 Z " fill="#191919" transform="translate(138,356)"/>
<path d="M0 0 C0.66 0.33 1.32 0.66 2 1 C-5.26 8.26 -12.52 15.52 -20 23 C-20 19.44367951 -19.50125436 19.09404113 -17.1484375 16.6015625 C-16.54386719 15.95703125 -15.93929688 15.3125 -15.31640625 14.6484375 C-14.67574219 13.98070312 -14.03507812 13.31296875 -13.375 12.625 C-12.75753906 11.965 -12.14007813 11.305 -11.50390625 10.625 C-7.86902956 6.78350926 -4.13574584 3.2958713 0 0 Z " fill="#B0B0B0" transform="translate(291,41)"/>
<path d="M0 0 C0 0.66 0 1.32 0 2 C-0.680625 2.391875 -1.36125 2.78375 -2.0625 3.1875 C-5.95679506 5.59036291 -8.86162112 8.69882337 -12 12 C-12 9 -12 9 -9.8125 6.5625 C-2.6097561 0 -2.6097561 0 0 0 Z " fill="#BBBBBB" transform="translate(41,152)"/>
<path d="M0 0 C0 3.86695678 -1.41909971 6.5088452 -3 10 C-3.99 9.67 -4.98 9.34 -6 9 C-4.47291037 5.56404834 -2.40072955 2.88087546 0 0 Z " fill="#2C2C2C" transform="translate(289,75)"/>
</svg>
