<?xml version="1.0" encoding="UTF-8"?>
<svg version="1.1" xmlns="http://www.w3.org/2000/svg" width="500" height="500">
<path d="M0 0 C1.54534609 -0.00346405 3.0906897 -0.00823359 4.63602823 -0.01418173 C8.84774636 -0.02661874 13.0592586 -0.02055494 17.27097714 -0.01122308 C21.82658997 -0.00440282 26.38216872 -0.01492846 30.93777466 -0.02316284 C39.84820611 -0.03647042 48.75856155 -0.03363582 57.66899592 -0.02492492 C64.91305924 -0.01813747 72.15710133 -0.01723624 79.40116692 -0.02049637 C80.43392598 -0.02095607 81.46668504 -0.02141577 82.53073983 -0.0218894 C84.62904911 -0.02284861 86.7273584 -0.02382125 88.82566767 -0.02480717 C108.47981951 -0.03335224 128.1339293 -0.02354058 147.78807425 -0.00740607 C164.6379883 0.00599829 181.48784035 0.00366632 198.3377533 -0.01016235 C217.92527313 -0.02623034 237.51275616 -0.03253044 257.10028166 -0.02332556 C259.19037369 -0.02236996 261.28046574 -0.02142684 263.37055779 -0.02049637 C264.91293857 -0.01980213 264.91293857 -0.01980213 266.48647856 -0.01909386 C273.71908373 -0.01650778 280.95166549 -0.02086669 288.18426704 -0.02793503 C297.00224491 -0.03636368 305.82014269 -0.03404112 314.63811142 -0.0180928 C319.13379975 -0.01022876 323.62935473 -0.00708656 328.12504196 -0.01704025 C332.24613604 -0.02602636 336.36697406 -0.02099033 340.48804515 -0.0051076 C341.97305285 -0.00177631 343.4580825 -0.00341632 344.9430759 -0.01073496 C366.02914961 -0.10662582 385.27212436 7.17101377 400.50645447 22.00595093 C416.03486595 37.77505527 421.6362117 56.97272428 421.58638 78.56752014 C421.59012056 80.10798754 421.5947237 81.64845303 421.60011065 83.18891555 C421.612306 87.40576336 421.61208428 91.62253162 421.6097219 95.83939302 C421.60931285 100.39374974 421.62036128 104.94808125 421.62983704 109.50242615 C421.64642915 118.4194042 421.65194578 127.33635581 421.65306179 136.25334802 C421.65401314 143.50416162 421.6581278 150.75496651 421.66446304 158.00577736 C421.68207082 178.57792478 421.69130268 199.15005136 421.6898021 219.72220638 C421.68972218 220.83057597 421.68964227 221.93894555 421.68955994 223.0809021 C421.68947818 224.19063016 421.68939641 225.30035823 421.68931217 226.44371442 C421.68849948 244.42359695 421.70763426 262.40339566 421.73583667 280.38325395 C421.76458796 298.8593152 421.77837572 317.3353356 421.77664912 335.81141979 C421.77598598 346.17849665 421.78144494 356.54548566 421.80300522 366.91254234 C421.82124658 375.74008466 421.82554012 384.5674993 421.81198637 393.39505234 C421.80547155 397.89505581 421.80528556 402.39481452 421.82269287 406.89479446 C421.83849476 411.02237707 421.83548804 415.1495223 421.81812461 419.2770947 C421.81507028 420.76226209 421.81862735 422.24746271 421.82984476 423.73259088 C421.92064715 436.61815153 419.54934754 448.20649639 413.50645447 459.69345093 C412.98607605 460.70097412 412.98607605 460.70097412 412.45518494 461.72885132 C403.2449662 479.11308664 387.90883458 490.46875793 369.68223572 497.37313843 C360.1502918 500.22940037 351.0960784 500.67159046 341.17744446 500.64837646 C339.65403857 500.65211819 338.1306346 500.65672179 336.60723364 500.66210711 C332.4421124 500.67428809 328.27707178 500.67408245 324.11193681 500.67171836 C319.61141119 500.67130894 315.110911 500.68236126 310.61039734 500.6918335 C301.80050233 500.70841792 292.9906341 500.7139419 284.18072478 500.71505825 C277.01576462 500.71601001 269.85081325 500.72012669 262.68585587 500.7264595 C242.35109798 500.74406551 222.01636117 500.75329946 201.68159561 500.75179856 C200.03859947 500.75167869 200.03859947 500.75167869 198.3624115 500.7515564 C196.71739827 500.75143375 196.71739827 500.75143375 195.03915246 500.75130863 C177.27407956 500.75049608 159.50909152 500.76962768 141.74404316 500.79783313 C123.48264288 500.82659674 105.22128394 500.84037149 86.95986044 500.83864558 C76.71569523 500.83798284 66.47161896 500.84342393 56.22747421 500.86500168 C47.50395061 500.88325934 38.78055627 500.88752332 30.05702178 500.87398283 C25.61144466 500.86747606 21.16611518 500.86725251 16.72056198 500.88468933 C12.64040737 500.90052744 8.56069454 500.89744833 4.48055001 500.88012107 C3.01489223 500.87707458 1.54920058 500.88059342 0.0835828 500.89184122 C-13.1160909 500.98632504 -26.29315561 498.95591469 -38.05604553 492.63095093 C-38.715401 492.2880603 -39.37475647 491.94516968 -40.05409241 491.59188843 C-45.82253682 488.49579877 -50.84505189 484.79794151 -55.68104553 480.38095093 C-56.37456116 479.7905603 -57.06807678 479.20016968 -57.78260803 478.59188843 C-69.79509999 467.69252313 -77.97531588 449.08092036 -78.86747611 433.0260365 C-78.94125779 429.04953264 -78.95286883 425.07554919 -78.94174194 421.09863281 C-78.94476648 419.56000216 -78.94865747 418.021373 -78.95333451 416.48274648 C-78.96358428 412.27569416 -78.96144042 408.06872735 -78.95715392 403.86166811 C-78.9546812 399.316232 -78.96370761 394.77081619 -78.97119141 390.22538757 C-78.98392514 381.32859875 -78.98573376 372.43184013 -78.98339114 363.53504373 C-78.98160639 356.30187648 -78.98336099 349.06871838 -78.98761559 341.83555222 C-78.98821077 340.80516205 -78.98880596 339.77477188 -78.98941919 338.71315777 C-78.99063097 336.61976088 -78.9918451 334.52636399 -78.99306156 332.43296711 C-79.00393193 312.81174505 -79.00177695 293.19054018 -78.99567672 273.56931715 C-78.99050764 255.63019382 -79.00176368 237.69112479 -79.02077494 219.75201221 C-79.04015956 201.31887026 -79.04840826 182.885754 -79.04465169 164.45260179 C-79.04274064 154.10909575 -79.04521785 143.76563593 -79.05936623 133.42213821 C-79.07128891 124.61690205 -79.07267491 115.81174056 -79.06057606 107.00650336 C-79.05469372 102.51690794 -79.0535701 98.02744905 -79.06557846 93.53786278 C-79.07645846 89.42220602 -79.07330888 85.30679945 -79.05931678 81.19115429 C-79.05667567 79.7080733 -79.05901783 78.22497258 -79.06705264 76.74191101 C-79.17817547 54.68747252 -71.26697797 37.6170204 -56.73182678 21.34970093 C-54.68104553 19.38095093 -54.68104553 19.38095093 -51.68104553 18.38095093 C-51.68104553 17.72095093 -51.68104553 17.06095093 -51.68104553 16.38095093 C-47.5301502 13.43368512 -43.08865329 10.92429066 -38.68104553 8.38095093 C-37.81221741 7.87563843 -36.94338928 7.37032593 -36.04823303 6.84970093 C-24.68124509 0.69727181 -12.66911312 -0.06254121 0 0 Z " fill="#FCFCFC" transform="translate(78.68104553222656,-0.380950927734375)"/>
<path d="M0 0 C64.15663686 0 64.15663686 0 75.479743 11.28760338 C81.80435563 18.41156027 81.56956382 25.80374372 81.50170898 34.87646484 C81.50549766 36.27027429 81.5110022 37.66407997 81.51808167 39.05787659 C81.53198495 42.8246448 81.52090184 46.59095358 81.50437045 50.35769606 C81.4904597 54.31281816 81.49698707 58.2679152 81.50050354 62.22305298 C81.50320156 68.8655736 81.48976754 75.50791312 81.46655273 82.15039062 C81.43996744 89.80986354 81.43819044 97.46903336 81.4499411 105.12853658 C81.46075486 112.51929975 81.45450227 119.9099542 81.44038582 127.30070877 C81.43465491 130.43523378 81.4346858 133.56967847 81.43945122 136.70420456 C81.44425574 140.40288769 81.43397714 144.10124293 81.41249657 147.79986382 C81.40435924 149.78979303 81.41074256 151.77976539 81.41769409 153.7696991 C81.33463331 163.87832743 79.98130007 171.98502576 73.890625 180.2109375 C61.60345072 191.83805696 42.26228017 190 27 190 C27 248.41 27 306.82 27 367 C18.09 367 9.18 367 0 367 C0 245.89 0 124.78 0 0 Z " fill="#010101" transform="translate(167,66)"/>
<path d="M0 0 C8.91 0 17.82 0 27 0 C27.71999195 2.8799678 28.16645879 5.13010843 28.35717773 8.02050781 C28.41077957 8.80448441 28.46438141 9.588461 28.51960754 10.39619446 C28.57372299 11.23998154 28.62783844 12.08376862 28.68359375 12.953125 C28.74338913 13.83731613 28.80318451 14.72150726 28.86479187 15.63249207 C28.99251842 17.52441507 29.1186956 19.41644319 29.24346924 21.30856323 C29.56765743 26.22313998 29.90264552 31.13697486 30.23828125 36.05078125 C30.33656219 37.49343102 30.33656219 37.49343102 30.43682861 38.96522522 C30.92923541 46.12957422 31.49389205 53.28392207 32.125 60.4375 C32.83095841 68.45274522 33.34135806 76.45930205 33.65869141 84.49975586 C33.6901123 85.25393799 33.7215332 86.00812012 33.75390625 86.78515625 C33.77783447 87.43363525 33.8017627 88.08211426 33.82641602 88.75024414 C33.96547497 90.55253429 34.20407891 92.34702574 34.47485352 94.13427734 C35.10537064 98.77565725 35.3882384 103.391927 35.6484375 108.06640625 C35.76641379 110.0827699 35.88450108 112.09912706 36.00268555 114.11547852 C36.06338226 115.16824982 36.12407898 116.22102112 36.18661499 117.30569458 C37.49338166 139.89711401 39.1051572 162.45076141 41 185 C41.04567108 184.27433334 41.09134216 183.54866669 41.13839722 182.80101013 C41.57653702 175.84726259 42.01737062 168.89369172 42.46098137 161.9402914 C42.68877084 158.36840311 42.9156388 154.79646204 43.14013672 151.22436523 C44.05198039 136.72541007 45.00670257 122.23882324 46.31990051 107.76937866 C47.07648295 99.37554404 47.60089466 90.97699217 48.0625 82.5625 C48.91211724 67.20050184 48.91211724 67.20050184 49.53125 62.59765625 C50.08427589 58.35318258 50.2691097 54.14876294 50.4375 49.875 C50.80511432 41.57174524 51.47116357 33.32409661 52.26489258 25.05175781 C53.05588426 16.7071317 53.55945035 8.37044344 54 0 C63.24 0 72.48 0 82 0 C81.48847655 5.13341045 80.97468485 10.26650872 80.45581055 15.39916992 C80.2810975 17.13342341 80.10753575 18.86779338 79.93530273 20.60229492 C78.95360844 30.47969415 77.85858717 40.32910272 76.54296875 50.16796875 C75.0041854 61.68524106 73.72868354 73.22409703 72.49584961 84.77764893 C71.85011352 90.82382598 71.19485813 96.86896942 70.5390625 102.9140625 C70.40804138 104.12222626 70.27702026 105.33039001 70.14202881 106.57516479 C68.79351952 118.96800089 67.35596278 131.34970823 65.89941406 143.73022461 C64.72681078 153.70660186 63.57972426 163.68539824 62.4609375 173.66796875 C62.26319733 175.42929138 62.26319733 175.42929138 62.0614624 177.22619629 C61.54048814 181.86838512 61.01951922 186.51056639 60.50415039 191.15338135 C60.1483079 194.35902727 59.78920165 197.56429531 59.4296875 200.76953125 C59.32981537 201.67865768 59.22994324 202.58778412 59.12704468 203.52445984 C58.597556 208.22233188 58.02745838 212.89624472 57.26072693 217.56164551 C54.79276536 233.06115225 54.52127718 248.42475578 54.49388909 264.08723593 C54.48434168 267.75606524 54.45812909 271.42478007 54.43388367 275.09353638 C54.39065573 282.00243555 54.36184327 288.91131197 54.33856028 295.82030404 C54.31127036 303.70223126 54.26737644 311.58404077 54.22227156 319.46588302 C54.13005332 335.643874 54.06027923 351.82185368 54 368 C45.09 368 36.18 368 27 368 C26.9906543 364.13974121 26.98130859 360.27948242 26.97167969 356.30224609 C26.93754405 343.38625866 26.88199143 330.47043244 26.81609726 317.55457115 C26.77674125 309.74227006 26.74424248 301.93006409 26.72900391 294.11767578 C26.76800007 246.75708388 26.76800007 246.75708388 22.50292969 199.63085938 C21.88575923 195.1752482 21.3658051 190.71163864 20.85083008 186.24328613 C20.41260121 182.46406902 19.9453307 178.68873756 19.47753906 174.91308594 C17.15407132 156.12582183 15.02239756 137.32185286 13 118.5 C11.07207473 100.56874687 9.04493863 82.65363156 6.875 64.75 C6.68753204 63.20209778 6.68753204 63.20209778 6.49627686 61.6229248 C6.00882367 57.59926667 5.52111855 53.57563919 5.0329895 49.55206299 C3.96199416 40.71302579 2.91087792 31.8718014 1.88873291 23.02697754 C1.71564624 21.53260784 1.5413298 20.03837996 1.36566162 18.54431152 C1.12843603 16.52472443 0.89612119 14.50456231 0.6640625 12.484375 C0.53467285 11.36772461 0.4052832 10.25107422 0.27197266 9.10058594 C0.00678149 6.07731147 0 3.034883 0 0 Z " fill="#020202" transform="translate(259,65)"/>
<path d="M0 0 C9.57 0 19.14 0 29 0 C30.28625406 10.08207099 31.48273548 20.16333908 32.54076767 30.27192688 C32.778546 32.5431384 33.0183341 34.81413076 33.25857544 37.08508301 C33.60139427 40.32688849 33.94355903 43.56876182 34.28512573 46.81069946 C36.903215 71.65168266 39.53079368 96.48906521 42.5402832 121.28637695 C43.33826026 127.90806821 44.07410089 134.50923469 44.50390625 141.16796875 C44.88647483 147.06901555 45.62592109 152.86733758 46.44238281 158.72216797 C47.52421736 166.75472974 48.25305975 174.83271222 49.05859375 182.89657593 C49.60422014 188.35604997 50.15834992 193.81466447 50.7109375 199.2734375 C50.82129333 200.36583237 50.93164917 201.45822723 51.04534912 202.58372498 C52.00944416 212.12052267 52.99498288 221.65493201 54 231.1875 C54.07893494 231.93644531 54.15786987 232.68539062 54.23919678 233.45703125 C56.14658059 251.52810282 58.12077455 269.59198324 60.09190369 287.65618896 C60.75538875 293.74158132 61.41329733 299.82754825 62.06640625 305.9140625 C62.31706456 308.24785719 62.56775951 310.58164794 62.81848145 312.91543579 C62.98015383 314.4207723 63.14169521 315.92612288 63.30310059 317.43148804 C64.21213916 325.90001611 65.15012112 334.36435146 66.13671875 342.82421875 C66.23038223 343.63015976 66.32404572 344.43610077 66.42054749 345.26646423 C66.86876491 349.11996325 67.32116952 352.97287957 67.78149414 356.82495117 C67.94301238 358.20359674 68.10439662 359.58225801 68.265625 360.9609375 C68.47880371 362.75217041 68.47880371 362.75217041 68.69628906 364.57958984 C69.00363313 368.04091658 69 371.52505495 69 375 C59.43 375 49.86 375 40 375 C35.95769017 340.42451497 35.95769017 340.42451497 34.71923828 326.10058594 C34.05342396 318.43425129 33.28839755 310.7796591 32.5 303.125 C32.38132568 301.96049316 32.26265137 300.79598633 32.14038086 299.59619141 C31.50544879 293.47304636 30.80338448 287.36424509 30.0234375 281.2578125 C29.00132415 273.24537116 28.17063681 265.2182651 27.36810303 257.1812439 C25.5327863 238.82646391 23.53314927 220.49221761 21.46777344 202.16210938 C20.89170322 197.04444823 20.32417139 191.92584428 19.75631714 186.80726624 C19.25654425 182.30413395 18.75442796 177.80127325 18.24972534 173.2986908 C17.91582089 170.31915561 17.5828782 167.33951327 17.25 164.35986328 C17.08372893 162.87349085 16.91706414 161.38716241 16.75 159.90087891 C15.78797137 151.33844834 14.8664521 142.77385332 14.01953125 134.19921875 C13.07446972 124.63170835 12.0466502 115.07438074 10.99798584 105.51773071 C10.45084721 100.53029373 9.9068854 95.5425108 9.36328125 90.5546875 C9.25109253 89.52537613 9.13890381 88.49606476 9.02331543 87.43556213 C7.67757203 75.06718119 6.36793115 62.69497156 5.05859375 50.32269287 C3.69016846 37.39561746 2.30187351 24.47161137 0.81201172 11.55786133 C0.70260254 10.5964624 0.59319336 9.63506348 0.48046875 8.64453125 C0.38660889 7.83346924 0.29274902 7.02240723 0.19604492 6.18676758 C0.01180864 4.13171852 0 2.06329097 0 0 Z " fill="#030303" transform="translate(87,58)"/>
<path d="M0 0 C20.98504854 0 20.98504854 0 25.85077 4.84159184 C27.30065586 7.56467205 27.38002324 9.45282843 27.38768005 12.53453064 C27.39758469 13.66030014 27.40748932 14.78606964 27.41769409 15.94595337 C27.41319244 17.176716 27.4086908 18.40747864 27.40405273 19.67553711 C27.41091599 20.97506821 27.41777924 22.2745993 27.42485046 23.61351013 C27.44279564 27.17555036 27.44161098 30.73734444 27.43590808 34.2994163 C27.43281803 37.27410168 27.43890665 40.24873966 27.44494683 43.2234183 C27.45899502 50.24167768 27.45742849 57.25981536 27.44604492 64.27807617 C27.43456421 71.51613035 27.44863763 78.75381398 27.4754414 85.99181932 C27.49760027 92.20851371 27.50423536 98.4250918 27.49836498 104.64182287 C27.4949945 108.35375787 27.49741619 112.06545535 27.51461601 115.7773571 C27.53295983 119.91683278 27.51889629 124.0555878 27.50170898 128.19506836 C27.51137695 129.42380676 27.52104492 130.65254517 27.53100586 131.91851807 C27.52117172 133.04710739 27.51133759 134.17569672 27.50120544 135.33848572 C27.50099616 136.31684356 27.50078688 137.2952014 27.50057125 138.30320644 C26.83085936 141.91123368 25.62988135 143.44938021 23 146 C16 149 16 149 0 149 C0 99.83 0 50.66 0 0 Z " fill="#F3F3F3" transform="translate(194,86)"/>
<path d="M0 0 C38.28 0 76.56 0 116 0 C116 6.93 116 13.86 116 21 C77.72 21 39.44 21 0 21 C0 14.07 0 7.14 0 0 Z " fill="#090909" transform="translate(344,433)"/>
</svg>
