<?xml version="1.0" encoding="UTF-8"?>
<svg version="1.1" xmlns="http://www.w3.org/2000/svg" width="500" height="500">
<path d="M0 0 C1.53994685 -0.00418294 3.07989061 -0.00966568 4.61982876 -0.01631981 C8.8120883 -0.03066707 13.00414946 -0.02656362 17.19641936 -0.019153 C21.73298992 -0.0143969 26.26951904 -0.02695258 30.80607605 -0.03717041 C39.677935 -0.05431559 48.54972299 -0.05520741 57.4215942 -0.04995751 C64.63605119 -0.04590691 71.85048731 -0.04736991 79.06494331 -0.05270576 C80.60841637 -0.0538284 80.60841637 -0.0538284 82.18307071 -0.05497371 C84.27380427 -0.05650527 86.36453782 -0.05804362 88.45527137 -0.05958868 C108.03559745 -0.073298 127.61588351 -0.06788686 147.19620866 -0.05640347 C165.08780342 -0.04647072 182.97929476 -0.0594153 200.87087356 -0.08333766 C219.26913186 -0.10775104 237.66734203 -0.11733115 256.06561619 -0.11068493 C266.38401966 -0.10719795 276.70234361 -0.10939042 287.02073479 -0.12693596 C295.80348504 -0.14168587 304.58609975 -0.14225687 313.36884742 -0.12486505 C317.84470183 -0.11637602 322.32031439 -0.11415399 326.79615593 -0.1295166 C330.9026283 -0.14343632 335.0086533 -0.13850806 339.11510027 -0.11927737 C340.59138449 -0.11553926 342.06770518 -0.11837531 343.54395669 -0.12888902 C364.68954562 -0.26863901 382.80801182 6.85782309 398.2568512 21.38768005 C401.11118075 24.25692771 403.73652441 27.22197158 406.2568512 30.38768005 C406.78923401 31.04896912 407.32161682 31.71025818 407.87013245 32.3915863 C411.28438938 37.04097495 413.46364435 41.96942566 415.5068512 47.32518005 C415.75322327 47.96914734 415.99959534 48.61311462 416.25343323 49.27659607 C420.00551498 59.63695726 420.54984822 69.61084278 420.52427673 80.56715393 C420.52801843 82.09468461 420.53262202 83.62221338 420.53800738 85.14973915 C420.55018872 89.3262619 420.54998268 93.50270426 420.54761863 97.6792407 C420.54720922 102.19203634 420.55826145 106.70480662 420.56773376 111.21759033 C420.58431839 120.05154879 420.58984218 128.88548056 420.59095852 137.71945329 C420.59191027 144.9039596 420.5960269 152.08845713 420.60235977 159.27296066 C420.61996583 179.66305606 420.62919972 200.05313045 420.62769882 220.4432335 C420.62761891 221.54155126 420.627539 222.63986901 420.62745667 223.77146912 C420.6273749 224.87113521 420.62729314 225.97080131 420.6272089 227.10379063 C420.62639635 244.91736237 420.645528 262.73084949 420.6737334 280.54439677 C420.70249676 298.85551758 420.71627177 317.16659716 420.71454585 335.47774112 C420.7138831 345.74985191 420.71932455 356.021874 420.74090195 366.29396439 C420.75915928 375.04127645 420.76342385 383.78845961 420.7498831 392.53578253 C420.74337617 396.99351101 420.74315338 401.45099251 420.7605896 405.90869713 C420.77642697 409.99995388 420.77334932 414.09077002 420.75602134 418.18201672 C420.75297469 419.65171214 420.7564943 421.12144134 420.76774149 422.59109689 C420.86320645 435.96523591 418.82560761 449.32325102 412.1943512 461.13768005 C411.80932434 461.83957458 411.42429749 462.54146912 411.02760315 463.26463318 C402.02682268 478.99310654 386.6221189 491.89936666 369.2568512 497.38768005 C358.94317469 499.97385399 349.17816901 500.82217286 338.53857422 500.76863098 C337.01355136 500.77209716 335.48853103 500.7768681 333.96351582 500.78281271 C329.81718415 500.79522056 325.67106229 500.78919951 321.52473032 500.77985406 C317.03591794 500.77302161 312.54713977 500.7835654 308.05833435 500.79179382 C299.28252829 500.80508855 290.50679947 500.80227258 281.73099046 500.7935559 C274.59521101 500.78676336 267.45945311 500.78586941 260.32367134 500.78912735 C258.7966206 500.7898169 258.7966206 500.7898169 257.23872035 500.79052038 C255.17021059 500.79147961 253.10170084 500.79245225 251.03319109 500.79343815 C231.66653604 500.80197945 212.29992369 500.79217749 192.93327565 500.77603705 C176.33644158 500.762633 159.73967046 500.76496514 143.14283752 500.77879333 C123.84094634 500.79486795 104.5390925 500.80115772 85.23719555 500.79195654 C83.1768688 500.79100096 81.11654205 500.79005784 79.05621529 500.78912735 C78.04265338 500.78866452 77.02909148 500.7882017 75.98481558 500.78772485 C68.86183075 500.78514075 61.73886973 500.78949336 54.6158886 500.79656601 C45.92940208 500.80500204 37.24299683 500.80265668 28.55651956 500.78672378 C24.12942793 500.77886962 19.70247155 500.77570047 15.27538109 500.78567123 C11.21470815 500.79467808 7.1542945 500.78958786 3.09364475 500.77373858 C1.63288722 500.77041595 0.17210731 500.77202732 -1.28863556 500.77936594 C-13.66946692 500.83674438 -25.87863857 499.66944761 -36.9306488 493.70018005 C-37.59644958 493.35277771 -38.26225037 493.00537537 -38.94822693 492.64744568 C-56.63692513 483.18049534 -70.34130615 468.86330015 -76.6806488 449.52830505 C-78.61456103 442.64804038 -79.8665554 436.07930057 -79.87457657 428.91007233 C-79.87841771 427.61790346 -79.88225886 426.32573459 -79.8862164 424.99440908 C-79.88543625 423.56751595 -79.88455748 422.14062287 -79.8835907 420.71372986 C-79.88617574 419.19235233 -79.88918929 417.67097547 -79.8925941 416.14959955 C-79.90065125 411.97159852 -79.90245296 407.79361467 -79.90319157 403.61560678 C-79.9050444 399.10824022 -79.91259297 394.60088254 -79.91932678 390.09352112 C-79.93290223 380.23788004 -79.9389338 370.38224303 -79.94333744 360.52659416 C-79.9461016 354.36979969 -79.95033932 348.21300679 -79.95484161 342.05621338 C-79.96703402 325.00222116 -79.97733289 307.94823019 -79.98071671 290.8942337 C-79.98093627 289.80295014 -79.98115584 288.71166657 -79.98138206 287.5873138 C-79.98160033 286.49344808 -79.98181861 285.39958235 -79.9820435 284.27256918 C-79.98248697 282.05605666 -79.98293353 279.83954414 -79.98338318 277.62303162 C-79.98360461 276.52356951 -79.98382604 275.4241074 -79.98405418 274.29132825 C-79.98800012 256.4858683 -80.00544806 238.68044932 -80.0287427 220.87500519 C-80.05247845 202.58436529 -80.0649196 184.29374593 -80.06608462 166.00309038 C-80.06700021 155.73770446 -80.0727232 145.47237192 -80.09090424 135.20700073 C-80.10633535 126.46358001 -80.111408 117.72022916 -80.10316613 108.9767974 C-80.09927008 104.51938213 -80.10013792 100.06210743 -80.11422348 95.60470963 C-80.12702544 91.51593362 -80.12571015 87.42740289 -80.11363277 83.33862692 C-80.11168659 81.86750129 -80.11470371 80.3963579 -80.12347713 78.92525715 C-80.2426943 57.56529054 -74.57361608 40.53436086 -60.7431488 24.38768005 C-60.17982849 23.71092224 -59.61650818 23.03416443 -59.03611755 22.3368988 C-53.66531302 16.42221533 -46.55466739 12.43444161 -39.7431488 8.38768005 C-38.87303162 7.8668988 -38.00291443 7.34611755 -37.10643005 6.80955505 C-25.60745651 0.49937453 -12.84011814 -0.05754844 0 0 Z " fill="#000000" transform="translate(79.74314880371094,-0.3876800537109375)"/>
<path d="M0 0 C64.15663686 0 64.15663686 0 75.479743 11.28760338 C81.80435563 18.41156027 81.56956382 25.80374372 81.50170898 34.87646484 C81.50549766 36.27027429 81.5110022 37.66407997 81.51808167 39.05787659 C81.53198495 42.8246448 81.52090184 46.59095358 81.50437045 50.35769606 C81.4904597 54.31281816 81.49698707 58.2679152 81.50050354 62.22305298 C81.50320156 68.8655736 81.48976754 75.50791312 81.46655273 82.15039062 C81.43996744 89.80986354 81.43819044 97.46903336 81.4499411 105.12853658 C81.46075486 112.51929975 81.45450227 119.9099542 81.44038582 127.30070877 C81.43465491 130.43523378 81.4346858 133.56967847 81.43945122 136.70420456 C81.44425574 140.40288769 81.43397714 144.10124293 81.41249657 147.79986382 C81.40435924 149.78979303 81.41074256 151.77976539 81.41769409 153.7696991 C81.33463331 163.87832743 79.98130007 171.98502576 73.890625 180.2109375 C61.60345072 191.83805696 42.26228017 190 27 190 C27 248.41 27 306.82 27 367 C18.09 367 9.18 367 0 367 C0 245.89 0 124.78 0 0 Z " fill="#FDFDFD" transform="translate(167,66)"/>
<path d="M0 0 C9.24 0 18.48 0 28 0 C28.22139648 3.20090332 28.44279297 6.40180664 28.67089844 9.69970703 C29.42005888 20.52807321 30.17069083 31.35633708 30.92196274 42.18455696 C31.37540079 48.72064817 31.82841073 55.25676839 32.28027344 61.79296875 C32.71761633 68.11850836 33.15603907 74.44397219 33.59541321 80.76937103 C33.7716565 83.30720209 33.94767102 85.84504904 34.12345886 88.38291168 C35.09232569 102.3559983 36.08982807 116.32613435 37.15820312 130.29199219 C37.2518578 131.52352209 37.34551247 132.75505199 37.44200516 134.02390099 C37.88502187 139.8464907 38.33364682 145.66852261 38.79388428 151.48977661 C39.66117246 162.69002965 40.25860713 173.76327417 40 185 C40.66 185 41.32 185 42 185 C41.980513 184.2780545 41.961026 183.55610901 41.94094849 182.81228638 C41.7678269 170.53514743 42.77762748 158.3527296 43.6796875 146.1171875 C43.85469809 143.69323851 44.02926011 141.26925709 44.20339966 138.84524536 C44.66182689 132.48044802 45.12621147 126.11609929 45.59191895 119.75183105 C46.05829462 113.36475686 46.51919811 106.97728831 46.98046875 100.58984375 C47.58384033 92.24066355 48.18900308 83.89161897 48.7976532 75.54282188 C49.56592157 65.00347925 50.3279376 54.46370681 51.08203125 43.92333984 C51.16461119 42.77084684 51.24719112 41.61835384 51.33227348 40.43093681 C51.9671115 31.5395181 52.56254308 22.64628116 53.125 13.75 C53.41375 9.2125 53.7025 4.675 54 0 C63.24 0 72.48 0 82 0 C81.67 2.97 81.34 5.94 81 9 C80.76804326 11.12952119 80.53709596 13.25915269 80.30737305 15.38891602 C74.00806744 73.70439576 74.00806744 73.70439576 71.42089844 93.54492188 C69.65285535 107.3030987 68.25419889 121.1025668 66.83740234 134.90063477 C65.85219608 144.42816303 64.77856625 153.93179223 63.5078125 163.42578125 C61.78163612 176.32452852 60.44823735 189.25719711 59.12231445 202.20214844 C58.81203222 205.22098096 58.49790432 208.23939715 58.18359375 211.2578125 C58.09395859 212.14663116 58.00432343 213.03544983 57.91197205 213.95120239 C57.42043647 218.66541433 56.78300308 223.31205238 55.98002625 227.98377991 C54.9086031 234.91306211 54.69378915 241.68305368 54.68115234 248.68481445 C54.66608391 250.6334993 54.66608391 250.6334993 54.65071106 252.62155151 C54.62372265 256.13925243 54.60835574 259.65691405 54.59528303 263.17469049 C54.57951398 266.8675787 54.55276874 270.56038819 54.5272522 274.2532196 C54.48070573 281.22616068 54.4438459 288.19911697 54.41057932 295.17213267 C54.372186 303.1191276 54.32282172 311.06604299 54.27259517 319.01297057 C54.16963481 335.34192835 54.08170685 351.67091993 54 368 C45.09 368 36.18 368 27 368 C26.9906543 364.13974121 26.98130859 360.27948242 26.97167969 356.30224609 C26.93754405 343.38625866 26.88199143 330.47043244 26.81609726 317.55457115 C26.77674125 309.74227008 26.7442381 301.93006409 26.72900391 294.11767578 C26.66538511 244.92997809 26.66538511 244.92997809 22 196 C21.73494208 193.97931847 21.47332062 191.95818195 21.21582031 189.93652344 C20.86469231 187.19355639 20.51034362 184.45143402 20.13949585 181.71105957 C19.00445109 173.31721364 18.07318781 164.90329745 17.1484375 156.484375 C16.97267378 154.89265763 16.7967987 153.30095255 16.62081909 151.70925903 C16.16740652 147.60561705 15.71538587 143.5018232 15.26387024 139.39797211 C14.8505372 135.64172777 14.43650009 131.88556109 14.02246094 128.12939453 C13.94363772 127.41423141 13.86481451 126.69906828 13.78360271 125.96223354 C12.89858345 117.93302502 12.01252966 109.90393142 11.125 101.875 C11.0405299 101.11046131 10.9560598 100.34592262 10.86903 99.55821609 C8.32081362 76.50129962 5.68692895 53.45827178 2.81494141 30.43896484 C1.55905294 20.29108944 0.56334394 10.21141835 0 0 Z " fill="#FBFBFB" transform="translate(259,65)"/>
<path d="M0 0 C9.57 0 19.14 0 29 0 C30.74783291 13.65132052 32.29715704 27.32109845 33.8125 41 C34.00750595 42.75629227 34.00750595 42.75629227 34.20645142 44.54806519 C37.22422668 71.75176175 40.06368315 98.97342672 42.8359375 126.203125 C44.1700904 139.27572098 45.60292056 152.33283973 47.12374878 165.38479614 C49.00588922 181.58401852 50.63829596 197.80800086 52.24951172 214.03613281 C52.3508844 215.04808716 52.45225708 216.0600415 52.55670166 217.10266113 C52.74432189 218.97606715 52.93004023 220.84966535 53.11322021 222.72351074 C53.63688236 227.93787448 54.27807888 233.12451042 54.99047852 238.31665039 C55.96208429 245.49420582 56.66783089 252.67255817 57.30078125 259.88671875 C58.55690666 273.79997536 59.99433759 287.69163138 61.48046875 301.58203125 C61.58992954 302.60613979 61.69939034 303.63024834 61.81216812 304.68539047 C62.48643433 310.9895753 63.1634634 317.29346094 63.84161377 323.597229 C64.76168798 332.15000634 65.67988675 340.70298228 66.5949955 349.25629234 C66.91273664 352.22071734 67.23244709 355.18492548 67.55229187 358.14912415 C67.74482695 359.94551689 67.93728053 361.74191838 68.12963867 363.53833008 C68.21843292 364.35624023 68.30722717 365.17415039 68.39871216 366.0168457 C68.71956789 369.02739121 69 371.96990135 69 375 C59.43 375 49.86 375 40 375 C39.64808594 371.6278125 39.29617187 368.255625 38.93359375 364.78125 C36.13832986 338.05290441 33.28364898 311.33261156 30.34167862 284.61997604 C28.62744366 269.05144444 26.93179937 253.48147906 25.31640625 237.90234375 C25.24709019 237.23393274 25.17777412 236.56552174 25.10635757 235.87685585 C24.54093075 230.42178944 23.97687023 224.9665817 23.41297913 219.51135635 C21.57364017 201.72413213 19.67853935 183.94410952 17.69921875 166.171875 C17.60039902 165.28441526 17.50157928 164.39695553 17.39976501 163.48260307 C16.42892254 154.76961523 15.45357581 146.05714439 14.47045422 137.34553337 C12.31047548 118.19472438 10.25704175 99.03798323 8.38398743 79.85676575 C6.91994016 64.90129936 5.20918849 49.9773367 3.47021484 35.05175781 C2.71499315 28.55704665 1.97959197 22.06013955 1.25 15.5625 C1.12230225 14.44254639 0.99460449 13.32259277 0.86303711 12.16870117 C0.74839111 11.14494385 0.63374512 10.12118652 0.515625 9.06640625 C0.41540039 8.17896729 0.31517578 7.29152832 0.21191406 6.37719727 C0 4 0 4 0 0 Z " fill="#FCFCFC" transform="translate(87,58)"/>
<path d="M0 0 C20.98504854 0 20.98504854 0 25.85077 4.84159184 C27.30065586 7.56467205 27.38002324 9.45282843 27.38768005 12.53453064 C27.39758469 13.66030014 27.40748932 14.78606964 27.41769409 15.94595337 C27.41319244 17.176716 27.4086908 18.40747864 27.40405273 19.67553711 C27.41091599 20.97506821 27.41777924 22.2745993 27.42485046 23.61351013 C27.44279564 27.17555036 27.44161098 30.73734444 27.43590808 34.2994163 C27.43281803 37.27410168 27.43890665 40.24873966 27.44494683 43.2234183 C27.45899502 50.24167768 27.45742849 57.25981536 27.44604492 64.27807617 C27.43456421 71.51613035 27.44863763 78.75381398 27.4754414 85.99181932 C27.49760027 92.20851371 27.50423536 98.4250918 27.49836498 104.64182287 C27.4949945 108.35375787 27.49741619 112.06545535 27.51461601 115.7773571 C27.53295983 119.91683278 27.51889629 124.0555878 27.50170898 128.19506836 C27.51137695 129.42380676 27.52104492 130.65254517 27.53100586 131.91851807 C27.52117172 133.04710739 27.51133759 134.17569672 27.50120544 135.33848572 C27.50099616 136.31684356 27.50078688 137.2952014 27.50057125 138.30320644 C26.83085936 141.91123368 25.62988135 143.44938021 23 146 C16 149 16 149 0 149 C0 99.83 0 50.66 0 0 Z " fill="#000000" transform="translate(194,86)"/>
<path d="M0 0 C38.28 0 76.56 0 116 0 C116 6.93 116 13.86 116 21 C77.72 21 39.44 21 0 21 C0 14.07 0 7.14 0 0 Z " fill="#F4F4F4" transform="translate(344,433)"/>
</svg>
