<?xml version="1.0" encoding="UTF-8"?>
<svg version="1.1" xmlns="http://www.w3.org/2000/svg" width="500" height="500">
<path d="M0 0 C11.07955421 8.64813084 20.69958978 19.70053317 29.5 30.609375 C31.35407163 32.32825391 32.51409735 32.59591237 35 33 C37.18810398 32.71998678 37.18810398 32.71998678 39.46484375 32.07421875 C40.77316162 31.74587036 40.77316162 31.74587036 42.10791016 31.41088867 C43.0416748 31.17217041 43.97543945 30.93345215 44.9375 30.6875 C55.91877876 28.03568264 66.73226645 26.64408699 78 26 C79.05832031 25.93941406 80.11664063 25.87882812 81.20703125 25.81640625 C84.15992612 25.7445905 87.04995775 25.8364953 90 26 C90.75796875 26.04108887 91.5159375 26.08217773 92.296875 26.12451172 C123.06811023 27.94863987 156.8450201 36.87813484 180.9921875 57.015625 C183.01398343 58.29593065 183.01398343 58.29593065 185.34082031 57.23828125 C187.90761919 56.04301831 190.18708039 54.72075804 192.5546875 53.171875 C211.28926226 41.11825688 228.86437151 32.26026421 251.8125 35.5 C266.30720724 38.9174513 276.93741711 47.65725014 287.0234375 58.09375 C291.06259577 62.2522083 295.27136758 65.80840678 299.875 69.3125 C317.85447359 83.1505805 329.92418901 102.34867874 333 125 C334.75999587 145.7628498 327.21637511 161.66930167 315 178 C314.40832031 178.79148438 313.81664062 179.58296875 313.20703125 180.3984375 C299.61414365 197.02196891 277.18804424 208.99572507 256 212 C252.89430474 212.11129687 249.79463789 212.09438066 246.6875 212.0625 C245.85154297 212.05798828 245.01558594 212.05347656 244.15429688 212.04882812 C242.10283351 212.03710548 240.05140727 212.01917203 238 212 C237.84176758 212.6288208 237.68353516 213.2576416 237.52050781 213.90551758 C232.8238767 232.28885552 227.20896737 249.22659199 215 264 C214.1028125 265.20076172 214.1028125 265.20076172 213.1875 266.42578125 C210.61534963 269.45265106 207.74465147 271.88277979 204.625 274.3125 C204.01575684 274.79033936 203.40651367 275.26817871 202.77880859 275.76049805 C197.49824546 279.80522793 191.94453249 283.03078965 186.1328125 286.2421875 C176.85439894 291.4482799 170.53532565 297.75015923 167 308 C166.92428499 309.76679931 166.90412128 311.5363557 166.921875 313.3046875 C166.26178678 323.35551802 162.14839091 332.47254901 158.54324341 341.78063965 C157.23306667 345.16879003 155.94842457 348.56569399 154.66967773 351.96582031 C151.11464998 361.39235915 147.51855309 370.7984098 143.7137146 380.12728882 C142.43379059 383.27314623 141.18236683 386.42994006 139.93371582 389.58831787 C139.08992423 391.68195432 138.20070002 393.75173628 137.30761719 395.82470703 C133.77192315 404.48708286 133.9012508 410.03107911 136.89819336 418.66894531 C138.90589461 424.7387605 139.29546115 431.08548431 136.4375 436.9375 C132.2071756 442.25252297 127.72521668 444.13740623 121 445 C117.78519356 445.26150394 114.56996927 445.41750558 111.34765625 445.5546875 C109.86894798 445.61775589 109.86894798 445.61775589 108.36036682 445.68209839 C94.61738443 446.20126195 80.86513375 446.15074017 67.11450195 446.13037109 C63.1731639 446.12458898 59.2318927 446.12802407 55.29055691 446.13394356 C52.21844477 446.1375578 49.14634854 446.13640806 46.07423592 446.13381577 C44.61945653 446.13315329 43.16467565 446.13395091 41.70989799 446.13629532 C39.68998112 446.13884552 37.67005909 446.13426702 35.65014648 446.12939453 C34.50706528 446.12859894 33.36398407 446.12780334 32.18626404 446.12698364 C29 446 29 446 25.75160217 445.44772339 C22.42881394 444.9070602 20.76702673 445.52137991 17.6875 446.8125 C1.54869701 453.04794661 -14.74489185 451.20874374 -31.70092773 449.71191406 C-39.95632795 448.99731492 -48.18974313 448.45718017 -56.4375 449.5 C-76.84623116 451.673903 -96.12435404 449.96602144 -113.0625 437.4375 C-129.18942948 423.94767848 -135.34601295 404.19823828 -138 384 C-138.11214844 383.20207031 -138.22429687 382.40414063 -138.33984375 381.58203125 C-143.4776964 337.31204064 -130.15397951 293.07749507 -103.30859375 257.90234375 C-99.73295026 253.40707622 -95.95438001 249.16417831 -92 245 C-91.09507813 244.04222656 -90.19015625 243.08445312 -89.2578125 242.09765625 C-83.93973031 236.57334995 -78.39474402 231.50471972 -72.375 226.75 C-71.77083252 226.27183838 -71.16666504 225.79367676 -70.54418945 225.30102539 C-66.26136456 222 -66.26136456 222 -64 222 C-64.11593506 221.3694873 -64.23187012 220.73897461 -64.35131836 220.08935547 C-64.90191497 217.02131341 -65.42341254 213.94937539 -65.9375 210.875 C-66.1329541 209.72531738 -66.3284082 208.57563477 -66.52978516 207.39111328 C-67.55375993 200.82552441 -68.13054474 194.50414367 -67.99609375 187.875 C-67.04245469 175.58382087 -67.04245469 175.58382087 -70.12988281 164.1015625 C-73.18902309 161.23115562 -76.97930908 160.08065876 -80.88085938 158.83056641 C-84.91267226 157.25035587 -88.2765166 154.60683528 -91.75 152.0625 C-92.47598389 151.53922119 -93.20196777 151.01594238 -93.94995117 150.47680664 C-109.21875831 139.38187993 -118.63985698 126.01569119 -128.125 109.875 C-128.58640381 109.09398926 -129.04780762 108.31297852 -129.52319336 107.50830078 C-134.18480301 99.3643029 -135.36526945 92.29736539 -135.3125 83 C-135.30758545 81.98123779 -135.3026709 80.96247559 -135.29760742 79.9128418 C-134.98365796 59.54476668 -128.71608116 42.10347308 -114.21728516 27.59082031 C-104.58090288 18.49509315 -92.46230876 12.41115084 -80.47924805 6.99609375 C-74.89766272 4.47258372 -69.517856 1.6522541 -64.125 -1.25 C-42.5677186 -12.63661169 -21.32386251 -13.85989682 0 0 Z " fill="#FEFEFE" transform="translate(158,41)"/>
<path d="M0 0 C2.3718027 1.08668251 3.5879774 2.33565367 5.3359375 4.2734375 C11.00112616 10.16058317 17.45660753 14.98629312 23.9609375 19.8984375 C24.78335938 20.5275 25.60578125 21.1565625 26.453125 21.8046875 C54.68943613 42.51782923 89.46060822 52.55522988 123.83789062 56.53637695 C126.18191222 56.80812367 128.52409749 57.09578743 130.86523438 57.39135742 C143.86859727 58.98949993 156.85651264 59.50823937 169.94384766 59.92749023 C181.90170503 60.32198681 193.27655233 61.21631092 204.9609375 63.8984375 C205.73711426 64.0543335 206.51329102 64.21022949 207.31298828 64.37084961 C208.9609375 64.8984375 208.9609375 64.8984375 210.2109375 66.8359375 C214.06582835 82.57674181 204.63903708 98.39110846 198.16186523 112.27880859 C197.56740601 113.5755249 197.56740601 113.5755249 196.9609375 114.8984375 C196.67148254 115.49017258 196.38202759 116.08190765 196.08380127 116.6915741 C192.8020706 123.64208526 190.7747278 130.89496791 188.703125 138.27734375 C188.31061226 139.65794577 187.91754559 141.03839042 187.5239563 142.41868591 C186.49625446 146.0289598 185.47671449 149.64148983 184.45874023 153.2545166 C183.62942675 156.192549 182.79420394 159.12888549 181.95867729 162.06515598 C180.95478511 165.59363989 179.95360425 169.1228908 178.953125 172.65234375 C178.7652026 173.31498293 178.5772802 173.97762211 178.38366318 174.66034126 C176.47915221 181.38456809 174.60065726 188.10432214 172.9609375 194.8984375 C169.14845324 194.92730986 165.3359968 194.94519242 161.5234375 194.9609375 C160.43482422 194.96931641 159.34621094 194.97769531 158.22460938 194.98632812 C157.19013672 194.98955078 156.15566406 194.99277344 155.08984375 194.99609375 C153.65233765 195.00394897 153.65233765 195.00394897 152.18579102 195.01196289 C149.9609375 194.8984375 149.9609375 194.8984375 148.9609375 193.8984375 C148.60309868 191.4807702 148.29542639 189.07610696 148.0234375 186.6484375 C146.16796998 170.38486134 143.20252477 154.26333638 140.49536133 138.12548828 C140.14654906 136.04495055 139.79826931 133.96432346 139.45053101 131.88360596 C139.10739728 129.83468904 138.76205902 127.78614005 138.41445923 125.73797607 C137.61142386 120.97343791 136.85131987 116.21264124 136.21435547 111.42285156 C136.09579697 110.56768951 135.97723846 109.71252747 135.85508728 108.83145142 C135.6406883 107.26193509 135.4409306 105.69030324 135.26026917 104.11654663 C134.48706323 98.5633384 132.45916228 94.29751243 128.9609375 89.8984375 C126.39474595 87.96296037 126.39474595 87.96296037 123.6484375 86.8984375 C122.0859375 86.23177083 120.5234375 85.56510417 118.9609375 84.8984375 C119.13616943 85.55513428 119.31140137 86.21183105 119.49194336 86.88842773 C121.69382567 95.38839932 123.43439763 103.94508071 125.06811523 112.56811523 C125.51839349 114.93443005 125.98061572 117.29820519 126.44335938 119.66210938 C130.09653461 138.62942969 131.2872676 157.29217275 131.5859375 176.5859375 C131.62425035 178.66733164 131.66330898 180.74871219 131.703125 182.83007812 C131.79762317 187.85275017 131.88215881 192.87549533 131.9609375 197.8984375 C108.62009216 201.36835557 108.62009216 201.36835557 98.9609375 197.8984375 C91.58695292 192.37708433 88.03556531 183.56392069 84.46777344 175.31298828 C83.12446112 172.26898859 81.65872149 169.43110624 80 166.55078125 C74.33244596 156.68088134 69.9252376 146.32522789 65.7109375 135.7734375 C65.45324585 135.12934937 65.1955542 134.48526123 64.93005371 133.82165527 C62.4517276 127.59777976 60.05234047 121.37171565 58.0703125 114.96875 C55.24245441 104.93801414 55.24245441 104.93801414 47.8359375 98.1484375 C45.56572005 97.33581899 43.26939091 96.59505716 40.9609375 95.8984375 C39.34150184 95.28005186 37.72586307 94.65166946 36.11328125 94.015625 C23.95718174 89.37898322 10.71324494 85.53936863 -2.0390625 90.3984375 C-11.77434831 95.79231207 -18.12352428 104.06736106 -23.0390625 113.8984375 C-15.39267911 112.16437647 -8.32220845 109.5029785 -1.14282227 106.41186523 C7.65342702 102.65291619 15.56212678 100.17084145 24.8984375 103.3359375 C35.33085777 107.9031261 41.15456011 117.35108439 46.09765625 127.15234375 C48.78096183 135.68792666 48.25849661 147.65556087 44.3515625 155.67578125 C40.52156096 161.79732865 35.72841832 167.06201209 30.8984375 172.3984375 C26.79952501 176.93564954 23.37356089 181.8360068 19.9609375 186.8984375 C29.41082367 186.97049 38.8305964 186.75188729 48.2734375 186.3984375 C49.61132042 186.35004703 50.94921105 186.30186895 52.28710938 186.25390625 C55.51180025 186.13749142 58.73639833 186.01896904 61.9609375 185.8984375 C61.18675446 190.35957145 59.96400939 194.42639274 56.9609375 197.8984375 C52.34538383 200.67316544 48.90573328 201.2767101 43.55371094 201.28662109 C42.83737991 201.29187805 42.12104889 201.29713501 41.38301086 201.30255127 C39.02855229 201.31569103 36.67477729 201.30703126 34.3203125 201.296875 C32.67132438 201.29889836 31.02233713 201.30181199 29.37335205 201.30557251 C25.92020127 201.30998846 22.46728374 201.30359173 19.01416016 201.28955078 C14.6118281 201.27251303 10.21004702 201.2822701 5.80773544 201.30026817 C2.40169213 201.31117186 -1.00422327 201.30762876 -4.41027069 201.2998848 C-6.0320009 201.29789813 -7.65374312 201.30028753 -9.27545929 201.30732346 C-26.5061902 201.36565125 -39.95875997 197.55010044 -52.75390625 185.36328125 C-64.17684972 173.04212342 -68.18106909 157.15581949 -68.20703125 140.69921875 C-68.21035965 139.94231247 -68.21368805 139.18540619 -68.21711731 138.40556335 C-68.22214639 136.81310629 -68.22452689 135.22063883 -68.22436523 133.62817383 C-68.22654121 131.23435391 -68.24471109 128.84100371 -68.26367188 126.44726562 C-68.29729417 117.40901974 -67.79473679 108.79924308 -66.0390625 99.8984375 C-65.89299561 99.12717529 -65.74692871 98.35591309 -65.59643555 97.5612793 C-60.27944052 70.91400777 -47.88929867 46.34078717 -30.0390625 25.8984375 C-29.19601563 24.92132813 -28.35296875 23.94421875 -27.484375 22.9375 C-20.94175001 15.49698503 -13.77061637 9.08155946 -6.0390625 2.8984375 C-4.98525391 1.97224609 -4.98525391 1.97224609 -3.91015625 1.02734375 C-2.0390625 -0.1015625 -2.0390625 -0.1015625 0 0 Z " fill="#FDFDFD" transform="translate(101.0390625,277.1015625)"/>
<path d="M0 0 C11.07955421 8.64813084 20.69958978 19.70053317 29.5 30.609375 C31.35407163 32.32825391 32.51409735 32.59591237 35 33 C37.18810398 32.71998678 37.18810398 32.71998678 39.46484375 32.07421875 C40.77316162 31.74587036 40.77316162 31.74587036 42.10791016 31.41088867 C43.0416748 31.17217041 43.97543945 30.93345215 44.9375 30.6875 C55.91877876 28.03568264 66.73226645 26.64408699 78 26 C79.05832031 25.93941406 80.11664063 25.87882812 81.20703125 25.81640625 C84.15992612 25.7445905 87.04995775 25.8364953 90 26 C90.75796875 26.04108887 91.5159375 26.08217773 92.296875 26.12451172 C123.06811023 27.94863987 156.8450201 36.87813484 180.9921875 57.015625 C183.01398343 58.29593065 183.01398343 58.29593065 185.34082031 57.23828125 C187.90761919 56.04301831 190.18708039 54.72075804 192.5546875 53.171875 C211.28926226 41.11825688 228.86437151 32.26026421 251.8125 35.5 C266.30720724 38.9174513 276.93741711 47.65725014 287.0234375 58.09375 C291.06259577 62.2522083 295.27136758 65.80840678 299.875 69.3125 C317.85447359 83.1505805 329.92418901 102.34867874 333 125 C334.75999587 145.7628498 327.21637511 161.66930167 315 178 C314.40832031 178.79148438 313.81664062 179.58296875 313.20703125 180.3984375 C299.61414365 197.02196891 277.18804424 208.99572507 256 212 C252.89430474 212.11129687 249.79463789 212.09438066 246.6875 212.0625 C245.85154297 212.05798828 245.01558594 212.05347656 244.15429688 212.04882812 C242.10283351 212.03710548 240.05140727 212.01917203 238 212 C237.84176758 212.6288208 237.68353516 213.2576416 237.52050781 213.90551758 C232.8238767 232.28885552 227.20896737 249.22659199 215 264 C214.1028125 265.20076172 214.1028125 265.20076172 213.1875 266.42578125 C210.61534963 269.45265106 207.74465147 271.88277979 204.625 274.3125 C204.01575684 274.79033936 203.40651367 275.26817871 202.77880859 275.76049805 C197.49824546 279.80522793 191.94453249 283.03078965 186.1328125 286.2421875 C176.85439894 291.4482799 170.53532565 297.75015923 167 308 C166.92428499 309.76679931 166.90412128 311.5363557 166.921875 313.3046875 C166.26178678 323.35551802 162.14839091 332.47254901 158.54324341 341.78063965 C157.23306667 345.16879003 155.94842457 348.56569399 154.66967773 351.96582031 C151.11464998 361.39235915 147.51855309 370.7984098 143.7137146 380.12728882 C142.43379059 383.27314623 141.18236683 386.42994006 139.93371582 389.58831787 C139.08992423 391.68195432 138.20070002 393.75173628 137.30761719 395.82470703 C133.77192315 404.48708286 133.9012508 410.03107911 136.89819336 418.66894531 C138.90589461 424.7387605 139.29546115 431.08548431 136.4375 436.9375 C132.2071756 442.25252297 127.72521668 444.13740623 121 445 C117.78519356 445.26150394 114.56996927 445.41750558 111.34765625 445.5546875 C109.86894798 445.61775589 109.86894798 445.61775589 108.36036682 445.68209839 C94.61738443 446.20126195 80.86513375 446.15074017 67.11450195 446.13037109 C63.1731639 446.12458898 59.2318927 446.12802407 55.29055691 446.13394356 C52.21844477 446.1375578 49.14634854 446.13640806 46.07423592 446.13381577 C44.61945653 446.13315329 43.16467565 446.13395091 41.70989799 446.13629532 C39.68998112 446.13884552 37.67005909 446.13426702 35.65014648 446.12939453 C34.50706528 446.12859894 33.36398407 446.12780334 32.18626404 446.12698364 C29 446 29 446 25.75160217 445.44772339 C22.42881394 444.9070602 20.76702673 445.52137991 17.6875 446.8125 C1.54869701 453.04794661 -14.74489185 451.20874374 -31.70092773 449.71191406 C-39.95632795 448.99731492 -48.18974313 448.45718017 -56.4375 449.5 C-76.84623116 451.673903 -96.12435404 449.96602144 -113.0625 437.4375 C-129.18942948 423.94767848 -135.34601295 404.19823828 -138 384 C-138.11214844 383.20207031 -138.22429687 382.40414063 -138.33984375 381.58203125 C-143.4776964 337.31204064 -130.15397951 293.07749507 -103.30859375 257.90234375 C-99.73295026 253.40707622 -95.95438001 249.16417831 -92 245 C-91.09507813 244.04222656 -90.19015625 243.08445312 -89.2578125 242.09765625 C-83.93973031 236.57334995 -78.39474402 231.50471972 -72.375 226.75 C-71.77083252 226.27183838 -71.16666504 225.79367676 -70.54418945 225.30102539 C-66.26136456 222 -66.26136456 222 -64 222 C-64.11593506 221.3694873 -64.23187012 220.73897461 -64.35131836 220.08935547 C-64.90191497 217.02131341 -65.42341254 213.94937539 -65.9375 210.875 C-66.1329541 209.72531738 -66.3284082 208.57563477 -66.52978516 207.39111328 C-67.55375993 200.82552441 -68.13054474 194.50414367 -67.99609375 187.875 C-67.04245469 175.58382087 -67.04245469 175.58382087 -70.12988281 164.1015625 C-73.18902309 161.23115562 -76.97930908 160.08065876 -80.88085938 158.83056641 C-84.91267226 157.25035587 -88.2765166 154.60683528 -91.75 152.0625 C-92.47598389 151.53922119 -93.20196777 151.01594238 -93.94995117 150.47680664 C-109.21875831 139.38187993 -118.63985698 126.01569119 -128.125 109.875 C-128.58640381 109.09398926 -129.04780762 108.31297852 -129.52319336 107.50830078 C-134.18480301 99.3643029 -135.36526945 92.29736539 -135.3125 83 C-135.30758545 81.98123779 -135.3026709 80.96247559 -135.29760742 79.9128418 C-134.98365796 59.54476668 -128.71608116 42.10347308 -114.21728516 27.59082031 C-104.58090288 18.49509315 -92.46230876 12.41115084 -80.47924805 6.99609375 C-74.89766272 4.47258372 -69.517856 1.6522541 -64.125 -1.25 C-42.5677186 -12.63661169 -21.32386251 -13.85989682 0 0 Z M-77 20 C-78.10601562 20.50152588 -78.10601562 20.50152588 -79.234375 21.01318359 C-97.77512751 29.53742795 -110.0004674 41.00980521 -118 60 C-123.10886304 78.23745293 -116.7964321 97.45735775 -107.96533203 113.30517578 C-96.03401602 134.25287324 -79.44767518 145.71387465 -56.51953125 152.10546875 C-54 153 -54 153 -53 155 C-52.49648491 160.66747212 -53.11122567 166.15261271 -54 171.75 C-57.08295406 192.05345457 -53.56748125 211.78271739 -42 229 C-33.23422444 239.83793401 -23.55625857 247.61199048 -11.125 253.9375 C-9.61607178 254.71226685 -9.61607178 254.71226685 -8.07666016 255.50268555 C40.23734968 279.99536336 95.18168485 290.31624605 149 282 C149.8357959 281.87109375 150.6715918 281.7421875 151.53271484 281.609375 C172.68987553 278.18170074 193.84568028 271.54048904 207.140625 253.44775391 C208.37569272 251.69289511 209.57095501 249.91794987 210.75 248.125 C211.29769043 247.29609253 211.29769043 247.29609253 211.85644531 246.45043945 C217.32680942 237.7597808 219.86891095 228.30656662 222.125 218.375 C222.62737128 216.21609163 223.12997035 214.05723625 223.6328125 211.8984375 C223.86516602 210.89006836 224.09751953 209.88169922 224.33691406 208.84277344 C225.18258543 205.21722213 226.08270473 201.60802806 227 198 C228.22074219 198.02320313 229.44148438 198.04640625 230.69921875 198.0703125 C240.32728326 198.1988044 249.53616625 198.01249762 259 196 C259.90621094 195.81695312 260.81242187 195.63390625 261.74609375 195.4453125 C276.44103821 191.99018768 286.67908947 184.54673558 297 174 C297.80050781 173.22011719 298.60101563 172.44023437 299.42578125 171.63671875 C304.36232046 166.55988713 308.15347857 160.92845103 311.875 154.9375 C312.33986816 154.1935498 312.80473633 153.44959961 313.28369141 152.68310547 C320.03154141 141.45810269 321.68377914 130.91262924 318.9375 118 C315.81212398 106.92974288 309.58229986 97.51927608 302 89 C301.40445312 88.31035156 300.80890625 87.62070313 300.1953125 86.91015625 C293.72829168 79.936682 285.93386756 74.55182848 278.30078125 68.9453125 C274.79869567 66.36509851 271.36660457 63.72274818 267.98046875 60.9921875 C267.18374756 60.3530542 266.38702637 59.7139209 265.56616211 59.05541992 C264.06495159 57.84473565 262.57169403 56.62409623 261.08813477 55.3918457 C252.37211095 48.4048576 242.94547717 47.98713495 232 49 C216.67931043 52.34980671 203.63917341 62.40155885 191.57421875 71.96875 C189 74 189 74 186 76 C181.56775667 75.47385474 178.54840407 72.58193905 175.125 69.9375 C163.56329995 61.26763355 151.51547755 55.00943255 138 50 C136.33904297 49.33677734 136.33904297 49.33677734 134.64453125 48.66015625 C118.43103391 42.40665024 102.92878484 40.62963132 85.6875 40.625 C84.92467712 40.62309662 84.16185425 40.62119324 83.37591553 40.61923218 C69.15052049 40.62324665 55.5427882 41.81970472 41.875 46.0625 C40.10205499 46.59668936 38.32863236 47.12929663 36.5546875 47.66015625 C35.79655762 47.89355713 35.03842773 48.12695801 34.25732422 48.36743164 C31.85540922 49.04051857 29.45076398 49.53950269 27 50 C26.34515625 49.14019531 25.6903125 48.28039062 25.015625 47.39453125 C10.8826788 29.0135773 -3.95285097 10.62605675 -28.4453125 7.25390625 C-29.70988281 7.12822266 -29.70988281 7.12822266 -31 7 C-31.76054688 6.90589844 -32.52109375 6.81179687 -33.3046875 6.71484375 C-48.07397949 5.74514276 -63.89452844 14.03867639 -77 20 Z M-65.0625 240.9375 C-65.64249756 241.44112061 -66.22249512 241.94474121 -66.82006836 242.46362305 C-68.00012298 243.49099338 -69.17730879 244.52166844 -70.3515625 245.55566406 C-71.77247582 246.80064677 -73.21263238 248.02360439 -74.65625 249.2421875 C-86.24139953 259.20992979 -95.1504138 270.97820584 -103 284 C-103.60328125 284.9384375 -104.2065625 285.876875 -104.828125 286.84375 C-113.24526944 300.34151315 -118.36543655 315.59637396 -122 331 C-122.39473746 332.43780131 -122.79035819 333.87536095 -123.1875 335.3125 C-125.30396727 344.9180053 -125.18630439 354.68591023 -125.18530273 364.47607422 C-125.18748913 366.8631373 -125.20570405 369.24973696 -125.22460938 371.63671875 C-125.29369792 389.97651039 -122.67626184 406.81465937 -110 421 C-99.46734252 431.12270375 -88.06567776 437.22219337 -73.30224609 437.2746582 C-72.57919785 437.27976913 -71.8561496 437.28488007 -71.1111908 437.29014587 C-68.74851952 437.30391653 -66.38614384 437.30309545 -64.0234375 437.30078125 C-62.36772556 437.30467351 -60.71201461 437.30900927 -59.05630493 437.31376648 C-55.59837596 437.32120054 -52.14054916 437.32095678 -48.68261719 437.31567383 C-44.25979883 437.30986599 -39.83739746 437.32685531 -35.41464806 437.3500185 C-32.00020927 437.36476998 -28.5858708 437.36562592 -25.17140579 437.36250877 C-23.54077958 437.36302072 -21.91014756 437.36823457 -20.27955246 437.37832069 C-17.99908204 437.39070324 -15.71942296 437.38388455 -13.43896484 437.37231445 C-12.14405121 437.37294388 -10.84913757 437.3735733 -9.51498413 437.3742218 C-5.14604029 436.90908342 -1.51127927 435.74728726 1.42578125 432.3515625 C3.20581557 428.8855926 4.33710295 425.81986223 5 422 C4.18958252 422.03029297 3.37916504 422.06058594 2.54418945 422.09179688 C-0.52914922 422.20551894 -3.6025579 422.31706448 -6.67602539 422.42724609 C-8.6336856 422.49805356 -10.59125863 422.57125854 -12.54882812 422.64453125 C-20.70349539 422.9350283 -28.8403292 423.06221501 -37 423 C-25.62916175 407.49256238 -25.62916175 407.49256238 -20.0625 401.625 C-11.54360475 392.48767316 -9.3412901 382.82395683 -9.6015625 370.66015625 C-10.22441794 359.72484677 -17.2109377 351.19598649 -25 344 C-31.26094816 339.20766931 -37.00957143 337.06843936 -45 338 C-52.46280155 339.9177537 -59.56297466 343.00190185 -66.68017578 345.91503906 C-71.08283769 347.6963301 -75.35252037 349.05153477 -80 350 C-73.67728613 338.52810628 -66.80358956 329.26786319 -54 325 C-40.23912717 323.55494414 -28.67399583 326.7943597 -16 332 C-14.47004395 332.52267456 -14.47004395 332.52267456 -12.90917969 333.0559082 C-8.04828748 334.9809806 -4.87550014 336.57794035 -2.08569336 341.109375 C-0.74400075 344.32378893 0.42489335 347.49455169 1.46176147 350.81466675 C2.36772669 353.71439739 3.37093547 356.57765935 4.36741638 359.44728088 C4.86915204 360.89702501 5.36572467 362.34856646 5.85707092 363.80186462 C13.5016737 386.37823032 24.76362294 407.04065834 37.70068359 426.95800781 C39 429 39 429 40.19311523 431.72241211 C41.87616818 434.36571328 41.87616818 434.36571328 45.36987305 434.56762695 C46.75074137 434.56683736 48.13177087 434.53869745 49.51171875 434.48828125 C50.23994339 434.48120651 50.96816803 434.47413177 51.71846008 434.46684265 C54.04252237 434.43887081 56.3641673 434.3761365 58.6875 434.3125 C60.26363705 434.28742031 61.83981191 434.26460655 63.41601562 434.24414062 C67.27827398 434.18903626 71.13872732 434.10275228 75 434 C74.88658776 399.3559969 74.88658776 399.3559969 71 365 C70.66427979 363.07631592 70.66427979 363.07631592 70.32177734 361.11376953 C67.95542632 347.64821072 65.48805394 334.2286301 62 321 C69.36200196 324.14112084 73.61737162 326.53346295 77 334 C78.30259271 338.93497126 79.06570465 343.93900065 79.82421875 348.98046875 C80.05733765 350.44029921 80.29205322 351.8998755 80.52827454 353.35920715 C81.14350359 357.1871512 81.73702563 361.01814958 82.32592773 364.85021973 C82.92346049 368.71279894 83.54175996 372.5720428 84.15820312 376.43164062 C85.4616816 384.61761761 86.73632088 392.80778684 88 401 C88.18945694 402.21968475 88.37891388 403.43936951 88.57411194 404.6960144 C88.84148415 406.42152023 88.84148415 406.42152023 89.11425781 408.18188477 C89.27106018 409.19235367 89.42786255 410.20282257 89.5894165 411.24391174 C90.26374857 415.77044217 90.78933741 420.31185456 91.29882812 424.859375 C91.44173726 428.2200127 91.44173726 428.2200127 93 431 C94.70772358 431.08713831 96.41898649 431.10700007 98.12890625 431.09765625 C99.16337891 431.09443359 100.19785156 431.09121094 101.26367188 431.08789062 C102.35228516 431.07951172 103.44089844 431.07113281 104.5625 431.0625 C105.65498047 431.05798828 106.74746094 431.05347656 107.87304688 431.04882812 C110.58208495 431.03699826 113.29101599 431.02051543 116 431 C116.18712555 430.32809128 116.3742511 429.65618256 116.56704712 428.96391296 C118.35729604 422.5379646 120.15075157 416.11292018 121.94754982 409.68879986 C122.87052625 406.38845918 123.79238705 403.08781652 124.71142578 399.78637695 C136.8498661 356.19331445 136.8498661 356.19331445 142.5 345.375 C146.766369 336.80616751 150.02711665 328.08852909 153 319 C153.33 318.01 153.66 317.02 154 316 C154.11820625 314.37810033 154.1751432 312.75115453 154.1875 311.125 C154.20167969 310.28195312 154.21585937 309.43890625 154.23046875 308.5703125 C153.95819468 305.53376434 153.60981411 303.61316086 152 301 C148.89708505 299.76845328 148.89708505 299.76845328 145.25 299.25 C143.43242188 298.91742188 143.43242188 298.91742188 141.578125 298.578125 C139.80695313 298.29195313 139.80695313 298.29195313 138 298 C137.12649902 297.83193848 136.25299805 297.66387695 135.35302734 297.49072266 C131.15594606 296.87647092 127.00905516 296.71630806 122.7734375 296.5703125 C120.93170094 296.49874961 119.08998616 296.42662465 117.24829102 296.35400391 C116.28915802 296.31704407 115.33002502 296.28008423 114.34182739 296.24200439 C50.56744639 293.72689925 -9.22305598 282.77694402 -56 236 C-60.18148552 236 -62.07260486 238.30277131 -65.0625 240.9375 Z " fill="#0A0A0A" transform="translate(158,41)"/>
<path d="M0 0 C9.81879948 6.64657195 14.96329475 17.68196452 18.390625 28.7109375 C22.05675885 47.8481562 12.94010654 62.97817451 3.20996094 78.42919922 C0.15114094 83.39795228 -2.53501057 88.57151688 -5.21875 93.75 C-24.5453556 94.37937343 -40.03151558 93.5154741 -57.21875 83.75 C-57.29222656 82.15285156 -57.29222656 82.15285156 -57.3671875 80.5234375 C-57.71527696 73.59300049 -58.12682021 66.79039173 -59.28125 59.9375 C-61.69684968 43.95028683 -61.92802793 28.619278 -52.40625 14.9375 C-38.88286894 -2.3963365 -20.83805691 -11.73975037 0 0 Z " fill="#020202" transform="translate(261.21875,211.25)"/>
<path d="M0 0 C4.52257727 2.96604972 8.0578396 7.30483437 10.04296875 12.33984375 C10.70623282 19.00693974 11.11600917 25.72185696 7.04296875 31.33984375 C2.61853944 36.34643481 -2.00991548 39.96187097 -8.8125 40.61328125 C-16.28011932 40.84089919 -21.30655532 40.44133979 -26.95703125 35.33984375 C-32.02803055 30.489888 -33.97075559 25.50576429 -34.45703125 18.58984375 C-34.30893497 12.45310398 -31.865846 7.98104695 -27.95703125 3.33984375 C-19.58328221 -3.53577693 -9.78015866 -4.86411431 0 0 Z " fill="#030303" transform="translate(318.95703125,217.66015625)"/>
<path d="M0 0 C4.1291296 3.81082411 7.63560514 8.03399534 8.3359375 13.734375 C8.43578269 21.44242335 7.75495499 27.01369707 2.3515625 32.75 C-3.88880487 38.41810661 -9.4108301 39.51512826 -17.765625 39.3828125 C-23.73512876 38.67627703 -27.17683701 35.82316299 -31.3125 31.6875 C-35.16104277 25.55833929 -37.28649746 19.27365874 -36 12 C-33.5616786 5.1817309 -29.30524703 0.50987906 -23 -3 C-15.11364952 -5.57095026 -6.90665503 -4.52960358 0 0 Z " fill="#020202" transform="translate(194,199)"/>
</svg>
