<?xml version="1.0" encoding="UTF-8"?>
<svg version="1.1" xmlns="http://www.w3.org/2000/svg" width="500" height="500">
<path d="M0 0 C10.06380035 7.81550452 18.70797842 17.06837663 26.06640625 27.4765625 C27.44370804 29.34655762 28.60833178 30.76851668 30.4453125 32.18359375 C35.21884201 31.91587199 39.59252231 30.96318491 44.22607422 29.77416992 C87.88719583 18.76472646 133.48931115 27.56602563 171.90234375 50.04296875 C175.78581888 52.36534196 179.61815304 54.76985614 183.4453125 57.18359375 C184.04891602 56.82120605 184.65251953 56.45881836 185.27441406 56.08544922 C191.97181193 52.07288317 198.69305164 48.10318068 205.4453125 44.18359375 C206.09274414 43.80734863 206.74017578 43.43110352 207.40722656 43.04345703 C221.17429736 35.181933 236.8997411 31.92785714 252.5078125 35.30859375 C267.82403834 39.6471821 278.38678297 48.93781408 289.26416016 60.04003906 C292.58936659 63.41149189 295.9420408 66.53011941 299.6953125 69.43359375 C316.8711585 82.75822714 328.90114223 101.447291 332.1328125 123.18359375 C332.25631522 124.51527523 332.35937029 125.84896181 332.4453125 127.18359375 C332.50976562 127.96734375 332.57421875 128.75109375 332.640625 129.55859375 C333.50112679 148.83383374 324.05720145 166.2221836 311.4453125 180.18359375 C310.78273438 180.92738281 310.12015625 181.67117187 309.4375 182.4375 C289.83710888 203.23127287 265.21016584 210.32807788 237.4453125 212.18359375 C237.17904053 213.0243042 236.91276855 213.86501465 236.63842773 214.73120117 C235.62163124 217.91987673 234.59323434 221.10435468 233.55737305 224.28686523 C233.11567051 225.65161896 232.67832387 227.01779199 232.24584961 228.38549805 C227.87825653 242.17816421 222.16464408 254.23755042 212.4453125 265.18359375 C211.55779297 266.21226562 211.55779297 266.21226562 210.65234375 267.26171875 C204.36562011 274.07121898 196.41020247 278.56673362 188.55615234 283.32910156 C178.96532526 289.16179879 169.80128386 294.81057971 166.4453125 306.18359375 C166.4169937 307.94778356 166.40046277 309.71217284 166.390625 311.4765625 C165.6116413 322.31377771 161.03964988 332.2532425 157.1953125 342.30859375 C156.37733212 344.48603245 155.56102174 346.6640992 154.74633789 348.84277344 C153.10876763 353.21465262 151.4624016 357.58303488 149.80712891 361.94824219 C146.74797417 370.01631872 143.72928974 378.09928136 140.72106934 386.1864624 C139.89982267 388.38799425 139.07218388 390.58702979 138.24316406 392.78564453 C137.74664555 394.11096543 137.25022027 395.43632126 136.75390625 396.76171875 C136.32907959 397.8899707 135.90425293 399.01822266 135.46655273 400.18066406 C133.55116123 405.81282171 133.32731691 408.67501323 135.3828125 414.30859375 C137.78107021 421.68720544 139.28662574 428.43277049 135.7578125 435.62109375 C129.07630844 443.02492257 122.23739076 443.95057148 112.51538086 444.59326172 C110.79323657 444.67243331 109.07058526 444.74107594 107.34765625 444.80078125 C105.89660744 444.85708206 105.89660744 444.85708206 104.41624451 444.91452026 C91.40889601 445.36174803 78.39204065 445.33448748 65.37866211 445.31396484 C61.69759219 445.3081877 58.01659395 445.31161599 54.33552647 445.31753731 C51.45720381 445.32116048 48.57889806 445.31999763 45.70057487 445.31740952 C43.69105354 445.31643266 41.6815315 445.31943124 39.67201233 445.32254028 C29.57517652 445.29659112 29.57517652 445.29659112 24.71972656 444.63110352 C21.20590569 444.15087434 19.75699456 444.44768128 16.6328125 445.99609375 C3.46547067 451.81468976 -10.31043309 450.30835314 -24.3046875 449.18359375 C-41.36549193 447.85282624 -41.36549193 447.85282624 -58.4296875 448.68359375 C-76.62655296 450.73905364 -96.27540755 449.17841446 -111.3671875 437.80859375 C-112.77962292 436.61970926 -114.17659699 435.41212405 -115.5546875 434.18359375 C-116.15796875 433.673125 -116.76125 433.16265625 -117.3828125 432.63671875 C-133.28474625 418.16739164 -137.97508987 394.79059622 -139.42578125 374.203125 C-139.46832031 373.20667969 -139.51085937 372.21023438 -139.5546875 371.18359375 C-139.59553467 370.23105713 -139.59553467 370.23105713 -139.63720703 369.25927734 C-140.38191134 348.86187307 -137.71146287 328.64237263 -131.5546875 309.18359375 C-131.34505371 308.51489258 -131.13541992 307.84619141 -130.91943359 307.15722656 C-125.19853913 289.42641738 -115.98435781 272.84134829 -104.5546875 258.18359375 C-103.86246094 257.26964844 -103.17023438 256.35570312 -102.45703125 255.4140625 C-92.31129235 242.46165191 -80.12843881 230.52404351 -66.5546875 221.18359375 C-65.8946875 221.18359375 -65.2346875 221.18359375 -64.5546875 221.18359375 C-64.67062256 220.55308105 -64.78655762 219.92256836 -64.90600586 219.27294922 C-65.45659906 216.20492611 -65.97735285 213.13282279 -66.4921875 210.05859375 C-66.69054199 208.90673584 -66.88889648 207.75487793 -67.09326172 206.56811523 C-68.12290741 200.03550759 -68.67078343 193.77277301 -68.41015625 187.1640625 C-67.31055777 174.52885305 -67.31055777 174.52885305 -71.12548828 162.95849609 C-75.27000562 159.29667761 -80.08173502 157.25049055 -85.17626953 155.22265625 C-88.87071507 153.6086591 -91.96677947 151.3413642 -95.1796875 148.93359375 C-96.22382812 148.1859375 -97.26796875 147.43828125 -98.34375 146.66796875 C-105.18162424 141.47935538 -110.85170401 136.08873667 -115.8046875 129.05859375 C-116.62114746 127.91245605 -116.62114746 127.91245605 -117.45410156 126.74316406 C-121.70770811 120.6508227 -125.58290151 114.36264615 -129.3046875 107.93359375 C-129.81805664 107.05300293 -130.33142578 106.17241211 -130.86035156 105.26513672 C-138.44992444 91.80051853 -137.02189171 73.24276428 -133.5234375 58.50390625 C-127.40747308 37.54193141 -113.45943787 23.4870295 -94.71191406 13.16943359 C-91.58057554 11.53432957 -88.40595421 9.99564959 -85.22265625 8.46484375 C-78.13863019 5.04704248 -71.20593378 1.32574117 -64.24658203 -2.3371582 C-42.90528565 -13.5083342 -20.57224987 -14.6270584 0 0 Z " fill="#000000" transform="translate(158.5546875,41.81640625)"/>
<path d="M0 0 C2.3718027 1.08668251 3.5879774 2.33565367 5.3359375 4.2734375 C11.00112616 10.16058317 17.45660753 14.98629312 23.9609375 19.8984375 C24.78335938 20.5275 25.60578125 21.1565625 26.453125 21.8046875 C54.68943613 42.51782923 89.46060822 52.55522988 123.83789062 56.53637695 C126.18191222 56.80812367 128.52409749 57.09578743 130.86523438 57.39135742 C143.86859727 58.98949993 156.85651264 59.50823937 169.94384766 59.92749023 C181.90170503 60.32198681 193.27655233 61.21631092 204.9609375 63.8984375 C205.73711426 64.0543335 206.51329102 64.21022949 207.31298828 64.37084961 C208.9609375 64.8984375 208.9609375 64.8984375 210.2109375 66.8359375 C214.06582835 82.57674181 204.63903708 98.39110846 198.16186523 112.27880859 C197.56740601 113.5755249 197.56740601 113.5755249 196.9609375 114.8984375 C196.51791794 115.81697006 196.51791794 115.81697006 196.06594849 116.75405884 C193.0719243 123.1522761 191.11264591 129.7079338 189.2109375 136.5 C188.87094727 137.69466888 188.53095703 138.88933777 188.18066406 140.12020874 C187.10119973 143.91955271 186.03107447 147.72145718 184.9609375 151.5234375 C184.2427703 154.05355092 183.52402546 156.58350044 182.8046875 159.11328125 C179.42678819 171.01604868 176.07440465 182.92336689 172.9609375 194.8984375 C169.14845324 194.92730986 165.3359968 194.94519242 161.5234375 194.9609375 C160.43482422 194.96931641 159.34621094 194.97769531 158.22460938 194.98632812 C157.19013672 194.98955078 156.15566406 194.99277344 155.08984375 194.99609375 C153.65233765 195.00394897 153.65233765 195.00394897 152.18579102 195.01196289 C149.9609375 194.8984375 149.9609375 194.8984375 148.9609375 193.8984375 C148.62307129 191.82209609 148.34352577 189.73625825 148.0859375 187.6484375 C147.90565787 186.24470031 147.72463003 184.84105906 147.54296875 183.4375 C147.44709473 182.68887695 147.3512207 181.94025391 147.25244141 181.16894531 C145.14175154 164.72889861 142.39255274 148.41127674 139.56176758 132.08251953 C139.41588699 131.23829437 139.27000641 130.39406921 139.1197052 129.52426147 C138.8271259 127.83542439 138.5323676 126.14696332 138.23539734 124.45889282 C137.4948539 120.20590233 136.81814253 115.95643143 136.25 111.67675781 C136.13241333 110.82844391 136.01482666 109.98013 135.89367676 109.10610962 C135.67601182 107.51298963 135.47313211 105.91774019 135.28894043 104.32040405 C134.50370158 98.68246106 132.52595252 94.3616472 128.9609375 89.8984375 C126.39474595 87.96296037 126.39474595 87.96296037 123.6484375 86.8984375 C122.0859375 86.23177083 120.5234375 85.56510417 118.9609375 84.8984375 C119.13616943 85.55513428 119.31140137 86.21183105 119.49194336 86.88842773 C121.69382567 95.38839932 123.43439763 103.94508071 125.06811523 112.56811523 C125.51839349 114.93443005 125.98061572 117.29820519 126.44335938 119.66210938 C130.09653461 138.62942969 131.2872676 157.29217275 131.5859375 176.5859375 C131.62425035 178.66733164 131.66330898 180.74871219 131.703125 182.83007812 C131.79762317 187.85275017 131.88215881 192.87549533 131.9609375 197.8984375 C108.62009216 201.36835557 108.62009216 201.36835557 98.9609375 197.8984375 C91.58695292 192.37708433 88.03556531 183.56392069 84.46777344 175.31298828 C83.12446112 172.26898859 81.65872149 169.43110624 80 166.55078125 C74.33244596 156.68088134 69.9252376 146.32522789 65.7109375 135.7734375 C65.45324585 135.12934937 65.1955542 134.48526123 64.93005371 133.82165527 C62.4517276 127.59777976 60.05234047 121.37171565 58.0703125 114.96875 C55.24245441 104.93801414 55.24245441 104.93801414 47.8359375 98.1484375 C45.56572005 97.33581899 43.26939091 96.59505716 40.9609375 95.8984375 C39.34150184 95.28005186 37.72586307 94.65166946 36.11328125 94.015625 C23.95718174 89.37898322 10.71324494 85.53936863 -2.0390625 90.3984375 C-11.77434831 95.79231207 -18.12352428 104.06736106 -23.0390625 113.8984375 C-15.39267911 112.16437647 -8.32220845 109.5029785 -1.14282227 106.41186523 C7.65342702 102.65291619 15.56212678 100.17084145 24.8984375 103.3359375 C35.33085777 107.9031261 41.15456011 117.35108439 46.09765625 127.15234375 C48.78096183 135.68792666 48.25849661 147.65556087 44.3515625 155.67578125 C40.52156096 161.79732865 35.72841832 167.06201209 30.8984375 172.3984375 C26.80209851 176.93280086 23.35157556 181.82307616 19.9609375 186.8984375 C26.42912508 186.99371359 32.82644389 186.97204219 39.2734375 186.3984375 C46.83951757 185.74011436 54.37410691 185.81078477 61.9609375 185.8984375 C61.18675446 190.35957145 59.96400939 194.42639274 56.9609375 197.8984375 C52.34538383 200.67316544 48.90573328 201.2767101 43.55371094 201.28662109 C42.83737991 201.29187805 42.12104889 201.29713501 41.38301086 201.30255127 C39.02855229 201.31569103 36.67477729 201.30703126 34.3203125 201.296875 C32.67132438 201.29889836 31.02233713 201.30181199 29.37335205 201.30557251 C25.92020127 201.30998846 22.46728374 201.30359173 19.01416016 201.28955078 C14.6118281 201.27251303 10.21004702 201.2822701 5.80773544 201.30026817 C2.40169213 201.31117186 -1.00422327 201.30762876 -4.41027069 201.2998848 C-6.0320009 201.29789813 -7.65374312 201.30028753 -9.27545929 201.30732346 C-26.5061902 201.36565125 -39.95875997 197.55010044 -52.75390625 185.36328125 C-64.17684972 173.04212342 -68.18106909 157.15581949 -68.20703125 140.69921875 C-68.21035965 139.94231247 -68.21368805 139.18540619 -68.21711731 138.40556335 C-68.22214639 136.81310629 -68.22452689 135.22063883 -68.22436523 133.62817383 C-68.22654121 131.23435391 -68.24471109 128.84100371 -68.26367188 126.44726562 C-68.29729417 117.40901974 -67.79473679 108.79924308 -66.0390625 99.8984375 C-65.89299561 99.12717529 -65.74692871 98.35591309 -65.59643555 97.5612793 C-60.27944052 70.91400777 -47.88929867 46.34078717 -30.0390625 25.8984375 C-29.19601563 24.92132813 -28.35296875 23.94421875 -27.484375 22.9375 C-20.94175001 15.49698503 -13.77061637 9.08155946 -6.0390625 2.8984375 C-4.98525391 1.97224609 -4.98525391 1.97224609 -3.91015625 1.02734375 C-2.0390625 -0.1015625 -2.0390625 -0.1015625 0 0 Z " fill="#010101" transform="translate(101.0390625,277.1015625)"/>
<path d="M0 0 C10.06380035 7.81550452 18.70797842 17.06837663 26.06640625 27.4765625 C27.44370804 29.34655762 28.60833178 30.76851668 30.4453125 32.18359375 C35.21884201 31.91587199 39.59252231 30.96318491 44.22607422 29.77416992 C87.88719583 18.76472646 133.48931115 27.56602563 171.90234375 50.04296875 C175.78581888 52.36534196 179.61815304 54.76985614 183.4453125 57.18359375 C184.04891602 56.82120605 184.65251953 56.45881836 185.27441406 56.08544922 C191.97181193 52.07288317 198.69305164 48.10318068 205.4453125 44.18359375 C206.09274414 43.80734863 206.74017578 43.43110352 207.40722656 43.04345703 C221.17429736 35.181933 236.8997411 31.92785714 252.5078125 35.30859375 C267.82403834 39.6471821 278.38678297 48.93781408 289.26416016 60.04003906 C292.58936659 63.41149189 295.9420408 66.53011941 299.6953125 69.43359375 C316.8711585 82.75822714 328.90114223 101.447291 332.1328125 123.18359375 C332.25631522 124.51527523 332.35937029 125.84896181 332.4453125 127.18359375 C332.50976562 127.96734375 332.57421875 128.75109375 332.640625 129.55859375 C333.50112679 148.83383374 324.05720145 166.2221836 311.4453125 180.18359375 C310.78273438 180.92738281 310.12015625 181.67117187 309.4375 182.4375 C289.83710888 203.23127287 265.21016584 210.32807788 237.4453125 212.18359375 C237.17904053 213.0243042 236.91276855 213.86501465 236.63842773 214.73120117 C235.62163124 217.91987673 234.59323434 221.10435468 233.55737305 224.28686523 C233.11567051 225.65161896 232.67832387 227.01779199 232.24584961 228.38549805 C227.87825653 242.17816421 222.16464408 254.23755042 212.4453125 265.18359375 C211.55779297 266.21226562 211.55779297 266.21226562 210.65234375 267.26171875 C204.36562011 274.07121898 196.41020247 278.56673362 188.55615234 283.32910156 C178.96532526 289.16179879 169.80128386 294.81057971 166.4453125 306.18359375 C166.4169937 307.94778356 166.40046277 309.71217284 166.390625 311.4765625 C165.6116413 322.31377771 161.03964988 332.2532425 157.1953125 342.30859375 C156.37733212 344.48603245 155.56102174 346.6640992 154.74633789 348.84277344 C153.10876763 353.21465262 151.4624016 357.58303488 149.80712891 361.94824219 C146.74797417 370.01631872 143.72928974 378.09928136 140.72106934 386.1864624 C139.89982267 388.38799425 139.07218388 390.58702979 138.24316406 392.78564453 C137.74664555 394.11096543 137.25022027 395.43632126 136.75390625 396.76171875 C136.32907959 397.8899707 135.90425293 399.01822266 135.46655273 400.18066406 C133.55116123 405.81282171 133.32731691 408.67501323 135.3828125 414.30859375 C137.78107021 421.68720544 139.28662574 428.43277049 135.7578125 435.62109375 C129.07630844 443.02492257 122.23739076 443.95057148 112.51538086 444.59326172 C110.79323657 444.67243331 109.07058526 444.74107594 107.34765625 444.80078125 C105.89660744 444.85708206 105.89660744 444.85708206 104.41624451 444.91452026 C91.40889601 445.36174803 78.39204065 445.33448748 65.37866211 445.31396484 C61.69759219 445.3081877 58.01659395 445.31161599 54.33552647 445.31753731 C51.45720381 445.32116048 48.57889806 445.31999763 45.70057487 445.31740952 C43.69105354 445.31643266 41.6815315 445.31943124 39.67201233 445.32254028 C29.57517652 445.29659112 29.57517652 445.29659112 24.71972656 444.63110352 C21.20590569 444.15087434 19.75699456 444.44768128 16.6328125 445.99609375 C3.46547067 451.81468976 -10.31043309 450.30835314 -24.3046875 449.18359375 C-41.36549193 447.85282624 -41.36549193 447.85282624 -58.4296875 448.68359375 C-76.62655296 450.73905364 -96.27540755 449.17841446 -111.3671875 437.80859375 C-112.77962292 436.61970926 -114.17659699 435.41212405 -115.5546875 434.18359375 C-116.15796875 433.673125 -116.76125 433.16265625 -117.3828125 432.63671875 C-133.28474625 418.16739164 -137.97508987 394.79059622 -139.42578125 374.203125 C-139.46832031 373.20667969 -139.51085937 372.21023438 -139.5546875 371.18359375 C-139.59553467 370.23105713 -139.59553467 370.23105713 -139.63720703 369.25927734 C-140.38191134 348.86187307 -137.71146287 328.64237263 -131.5546875 309.18359375 C-131.34505371 308.51489258 -131.13541992 307.84619141 -130.91943359 307.15722656 C-125.19853913 289.42641738 -115.98435781 272.84134829 -104.5546875 258.18359375 C-103.86246094 257.26964844 -103.17023438 256.35570312 -102.45703125 255.4140625 C-92.31129235 242.46165191 -80.12843881 230.52404351 -66.5546875 221.18359375 C-65.8946875 221.18359375 -65.2346875 221.18359375 -64.5546875 221.18359375 C-64.67062256 220.55308105 -64.78655762 219.92256836 -64.90600586 219.27294922 C-65.45659906 216.20492611 -65.97735285 213.13282279 -66.4921875 210.05859375 C-66.69054199 208.90673584 -66.88889648 207.75487793 -67.09326172 206.56811523 C-68.12290741 200.03550759 -68.67078343 193.77277301 -68.41015625 187.1640625 C-67.31055777 174.52885305 -67.31055777 174.52885305 -71.12548828 162.95849609 C-75.27000562 159.29667761 -80.08173502 157.25049055 -85.17626953 155.22265625 C-88.87071507 153.6086591 -91.96677947 151.3413642 -95.1796875 148.93359375 C-96.22382812 148.1859375 -97.26796875 147.43828125 -98.34375 146.66796875 C-105.18162424 141.47935538 -110.85170401 136.08873667 -115.8046875 129.05859375 C-116.62114746 127.91245605 -116.62114746 127.91245605 -117.45410156 126.74316406 C-121.70770811 120.6508227 -125.58290151 114.36264615 -129.3046875 107.93359375 C-129.81805664 107.05300293 -130.33142578 106.17241211 -130.86035156 105.26513672 C-138.44992444 91.80051853 -137.02189171 73.24276428 -133.5234375 58.50390625 C-127.40747308 37.54193141 -113.45943787 23.4870295 -94.71191406 13.16943359 C-91.58057554 11.53432957 -88.40595421 9.99564959 -85.22265625 8.46484375 C-78.13863019 5.04704248 -71.20593378 1.32574117 -64.24658203 -2.3371582 C-42.90528565 -13.5083342 -20.57224987 -14.6270584 0 0 Z M-77.5546875 19.18359375 C-78.66070312 19.68511963 -78.66070312 19.68511963 -79.7890625 20.19677734 C-98.32981501 28.7210217 -110.5551549 40.19339896 -118.5546875 59.18359375 C-123.66355054 77.42104668 -117.3511196 96.6409515 -108.52001953 112.48876953 C-96.58870352 133.43646699 -80.00236268 144.8974684 -57.07421875 151.2890625 C-54.5546875 152.18359375 -54.5546875 152.18359375 -53.5546875 154.18359375 C-53.05117241 159.85106587 -53.66591317 165.33620646 -54.5546875 170.93359375 C-57.63764156 191.23704832 -54.12216875 210.96631114 -42.5546875 228.18359375 C-33.78891194 239.02152776 -24.11094607 246.79558423 -11.6796875 253.12109375 C-10.17075928 253.8958606 -10.17075928 253.8958606 -8.63134766 254.6862793 C39.68266218 279.17895711 94.62699735 289.4998398 148.4453125 281.18359375 C149.2811084 281.0546875 150.1169043 280.92578125 150.97802734 280.79296875 C172.13518803 277.36529449 193.29099278 270.72408279 206.5859375 252.63134766 C207.82100522 250.87648886 209.01626751 249.10154362 210.1953125 247.30859375 C210.74300293 246.47968628 210.74300293 246.47968628 211.30175781 245.6340332 C216.77212192 236.94337455 219.31422345 227.49016037 221.5703125 217.55859375 C222.07268378 215.39968538 222.57528285 213.24083 223.078125 211.08203125 C223.31047852 210.07366211 223.54283203 209.06529297 223.78222656 208.02636719 C224.62789793 204.40081588 225.52801723 200.79162181 226.4453125 197.18359375 C227.66605469 197.20679688 228.88679688 197.23 230.14453125 197.25390625 C239.77259576 197.38239815 248.98147875 197.19609137 258.4453125 195.18359375 C259.35152344 195.00054687 260.25773437 194.8175 261.19140625 194.62890625 C275.88635071 191.17378143 286.12440197 183.73032933 296.4453125 173.18359375 C297.24582031 172.40371094 298.04632813 171.62382812 298.87109375 170.8203125 C303.80763296 165.74348088 307.59879107 160.11204478 311.3203125 154.12109375 C311.78518066 153.37714355 312.25004883 152.63319336 312.72900391 151.86669922 C319.106463 141.25783921 321.25768334 131.10209656 318.75390625 118.78125 C315.39949281 106.97764455 309.49958879 97.35191947 301.4453125 88.18359375 C300.84847656 87.49136719 300.25164062 86.79914063 299.63671875 86.0859375 C293.16525539 79.11967412 285.3776888 73.73432689 277.74609375 68.12890625 C274.24400817 65.54869226 270.81191707 62.90634193 267.42578125 60.17578125 C266.62906006 59.53664795 265.83233887 58.89751465 265.01147461 58.23901367 C263.51026409 57.0283294 262.01700653 55.80768998 260.53344727 54.57543945 C251.81742345 47.58845135 242.39078967 47.1707287 231.4453125 48.18359375 C216.12462293 51.53340046 203.08448591 61.5851526 191.01953125 71.15234375 C188.4453125 73.18359375 188.4453125 73.18359375 185.4453125 75.18359375 C181.01306917 74.65744849 177.99371657 71.7655328 174.5703125 69.12109375 C163.00861245 60.4512273 150.96079005 54.1930263 137.4453125 49.18359375 C135.78435547 48.52037109 135.78435547 48.52037109 134.08984375 47.84375 C117.87634641 41.59024399 102.37409734 39.81322507 85.1328125 39.80859375 C84.36998962 39.80669037 83.60716675 39.80478699 82.82122803 39.80282593 C68.59583299 39.8068404 54.9881007 41.00329847 41.3203125 45.24609375 C39.54736749 45.78028311 37.77394486 46.31289038 36 46.84375 C35.24187012 47.07715088 34.48374023 47.31055176 33.70263672 47.55102539 C31.30072172 48.22411232 28.89607648 48.72309644 26.4453125 49.18359375 C25.79046875 48.32378906 25.135625 47.46398437 24.4609375 46.578125 C10.3279913 28.19717105 -4.50753847 9.8096505 -29 6.4375 C-30.26457031 6.31181641 -30.26457031 6.31181641 -31.5546875 6.18359375 C-32.31523438 6.08949219 -33.07578125 5.99539062 -33.859375 5.8984375 C-48.62866699 4.92873651 -64.44921594 13.22227014 -77.5546875 19.18359375 Z M-65.6171875 240.12109375 C-66.19718506 240.62471436 -66.77718262 241.12833496 -67.37475586 241.6472168 C-68.55481048 242.67458713 -69.73199629 243.70526219 -70.90625 244.73925781 C-72.32716332 245.98424052 -73.76731988 247.20719814 -75.2109375 248.42578125 C-86.79608703 258.39352354 -95.7051013 270.16179959 -103.5546875 283.18359375 C-104.15796875 284.12203125 -104.76125 285.06046875 -105.3828125 286.02734375 C-113.79995694 299.5251069 -118.92012405 314.77996771 -122.5546875 330.18359375 C-122.94942496 331.62139506 -123.34504569 333.0589547 -123.7421875 334.49609375 C-125.85865477 344.10159905 -125.74099189 353.86950398 -125.73999023 363.65966797 C-125.74217663 366.04673105 -125.76039155 368.43333071 -125.77929688 370.8203125 C-125.84838542 389.16010414 -123.23094934 405.99825312 -110.5546875 420.18359375 C-100.02203002 430.3062975 -88.62036526 436.40578712 -73.85693359 436.45825195 C-73.13388535 436.46336288 -72.4108371 436.46847382 -71.6658783 436.47373962 C-69.30320702 436.48751028 -66.94083134 436.4866892 -64.578125 436.484375 C-62.92241306 436.48826726 -61.26670211 436.49260302 -59.61099243 436.49736023 C-56.15306346 436.50479429 -52.69523666 436.50455053 -49.23730469 436.49926758 C-44.81448633 436.49345974 -40.39208496 436.51044906 -35.96933556 436.53361225 C-32.55489677 436.54836373 -29.1405583 436.54921967 -25.72609329 436.54610252 C-24.09546708 436.54661447 -22.46483506 436.55182832 -20.83423996 436.56191444 C-18.55376954 436.57429699 -16.27411046 436.5674783 -13.99365234 436.5559082 C-12.69873871 436.55653763 -11.40382507 436.55716705 -10.06967163 436.55781555 C-5.70072779 436.09267717 -2.06596677 434.93088101 0.87109375 431.53515625 C2.65112807 428.06918635 3.78241545 425.00345598 4.4453125 421.18359375 C-4.21247654 421.08356795 -12.72681896 421.192878 -21.359375 421.9609375 C-26.75536728 422.33694185 -32.1489004 422.26322073 -37.5546875 422.18359375 C-26.18384925 406.67615613 -26.18384925 406.67615613 -20.6171875 400.80859375 C-12.09829225 391.67126691 -9.8959776 382.00755058 -10.15625 369.84375 C-10.77910544 358.90844052 -17.7656252 350.37958024 -25.5546875 343.18359375 C-31.81563566 338.39126306 -37.56425893 336.25203311 -45.5546875 337.18359375 C-53.01748905 339.10134745 -60.11766216 342.1854956 -67.23486328 345.09863281 C-71.63752519 346.87992385 -75.90720787 348.23512852 -80.5546875 349.18359375 C-74.23197363 337.71170003 -67.35827706 328.45145694 -54.5546875 324.18359375 C-40.79381467 322.73853789 -29.22868333 325.97795345 -16.5546875 331.18359375 C-15.02473145 331.70626831 -15.02473145 331.70626831 -13.46386719 332.23950195 C-8.60297498 334.16457435 -5.43018764 335.7615341 -2.64038086 340.29296875 C-1.29868825 343.50738268 -0.12979415 346.67814544 0.90707397 349.9982605 C1.81303919 352.89799114 2.81624797 355.7612531 3.81272888 358.63087463 C4.31446454 360.08061876 4.81103717 361.53216021 5.30238342 362.98545837 C12.9469862 385.56182407 24.20893544 406.22425209 37.14599609 426.14160156 C38.4453125 428.18359375 38.4453125 428.18359375 39.63842773 430.90600586 C41.32148068 433.54930703 41.32148068 433.54930703 44.81518555 433.7512207 C46.19605387 433.75043111 47.57708337 433.7222912 48.95703125 433.671875 C49.68525589 433.66480026 50.41348053 433.65772552 51.16377258 433.6504364 C53.48783487 433.62246456 55.8094798 433.55973025 58.1328125 433.49609375 C59.70894955 433.47101406 61.28512441 433.4482003 62.86132812 433.42773438 C66.72358648 433.37263001 70.58403982 433.28634603 74.4453125 433.18359375 C74.33190026 398.53959065 74.33190026 398.53959065 70.4453125 364.18359375 C70.10959229 362.25990967 70.10959229 362.25990967 69.76708984 360.29736328 C67.40073882 346.83180447 64.93336644 333.41222385 61.4453125 320.18359375 C68.80797044 323.32499447 73.06029007 325.71807978 76.4453125 333.18359375 C77.74757251 338.10678152 78.51112179 343.09902997 79.26953125 348.12890625 C79.5026737 349.58633773 79.73738911 351.04351835 79.97358704 352.50045776 C80.58886646 356.32307574 81.18230866 360.14877173 81.77124023 363.9755249 C82.36833414 367.82831261 82.98709895 371.67760962 83.60351562 375.52734375 C86.29711926 392.41932107 88.86937131 409.32086002 90.98046875 426.296875 C91.13819895 429.07171269 91.13819895 429.07171269 92.4453125 430.18359375 C94.15303608 430.27073206 95.86429899 430.29059382 97.57421875 430.28125 C98.60869141 430.27802734 99.64316406 430.27480469 100.70898438 430.27148438 C101.79759766 430.26310547 102.88621094 430.25472656 104.0078125 430.24609375 C105.10029297 430.24158203 106.19277344 430.23707031 107.31835938 430.23242188 C110.02739745 430.22059201 112.73632849 430.20410918 115.4453125 430.18359375 C115.63243805 429.51168503 115.8195636 428.83977631 116.01235962 428.14750671 C117.80260854 421.72155835 119.59606407 415.29651393 121.39286232 408.87239361 C122.31583875 405.57205293 123.23769955 402.27141027 124.15673828 398.9699707 C136.2951786 355.3769082 136.2951786 355.3769082 141.9453125 344.55859375 C146.2116815 335.98976126 149.47242915 327.27212284 152.4453125 318.18359375 C152.7753125 317.19359375 153.1053125 316.20359375 153.4453125 315.18359375 C153.56351875 313.56169408 153.6204557 311.93474828 153.6328125 310.30859375 C153.64699219 309.46554687 153.66117187 308.6225 153.67578125 307.75390625 C153.40764717 304.76352959 152.96835495 302.78564294 151.4453125 300.18359375 C148.87706726 298.95777372 148.87706726 298.95777372 145.8203125 298.43359375 C144.81742187 298.211875 143.81453125 297.99015625 142.78125 297.76171875 C135.85060818 296.56062392 129.04188922 295.99882236 122.0234375 295.75390625 C120.18821027 295.6823695 118.35300592 295.61024385 116.51782227 295.53759766 C115.56690704 295.50063782 114.61599182 295.46367798 113.63626099 295.42559814 C49.91205121 292.89035735 -9.81658738 281.92169387 -56.5546875 235.18359375 C-60.73617302 235.18359375 -62.62729236 237.48636506 -65.6171875 240.12109375 Z " fill="#F6F6F6" transform="translate(158.5546875,41.81640625)"/>
<path d="M0 0 C9.81879948 6.64657195 14.96329475 17.68196452 18.390625 28.7109375 C22.05675885 47.8481562 12.94010654 62.97817451 3.20996094 78.42919922 C0.15114094 83.39795228 -2.53501057 88.57151688 -5.21875 93.75 C-24.5453556 94.37937343 -40.03151558 93.5154741 -57.21875 83.75 C-57.29222656 82.15285156 -57.29222656 82.15285156 -57.3671875 80.5234375 C-57.71527696 73.59300049 -58.12682021 66.79039173 -59.28125 59.9375 C-61.69684968 43.95028683 -61.92802793 28.619278 -52.40625 14.9375 C-38.88286894 -2.3963365 -20.83805691 -11.73975037 0 0 Z " fill="#FCFCFC" transform="translate(261.21875,211.25)"/>
<path d="M0 0 C4.52257727 2.96604972 8.0578396 7.30483437 10.04296875 12.33984375 C10.70623282 19.00693974 11.11600917 25.72185696 7.04296875 31.33984375 C2.61853944 36.34643481 -2.00991548 39.96187097 -8.8125 40.61328125 C-16.28011932 40.84089919 -21.30655532 40.44133979 -26.95703125 35.33984375 C-32.02803055 30.489888 -33.97075559 25.50576429 -34.45703125 18.58984375 C-34.30893497 12.45310398 -31.865846 7.98104695 -27.95703125 3.33984375 C-19.58328221 -3.53577693 -9.78015866 -4.86411431 0 0 Z " fill="#FBFBFB" transform="translate(318.95703125,217.66015625)"/>
<path d="M0 0 C4.1291296 3.81082411 7.63560514 8.03399534 8.3359375 13.734375 C8.43578269 21.44242335 7.75495499 27.01369707 2.3515625 32.75 C-3.88880487 38.41810661 -9.4108301 39.51512826 -17.765625 39.3828125 C-23.73512876 38.67627703 -27.17683701 35.82316299 -31.3125 31.6875 C-35.2031771 25.49123647 -37.13193718 19.34472874 -36 12 C-34.08906174 5.77807602 -30.35928327 1.58070795 -25 -2 C-16.87141817 -5.97397334 -7.45994741 -4.89247029 0 0 Z " fill="#FBFBFB" transform="translate(194,199)"/>
</svg>
